<svg width="15" height="15" viewBox="0 0 15 15" fill="none" xmlns="http://www.w3.org/2000/svg">
<path fill-rule="evenodd" clip-rule="evenodd" d="M0 7.5C0 3.36 3.3525 0 7.4925 0C11.64 0 15 3.36 15 7.5C15 11.64 11.64 15 7.4925 15C3.3525 15 0 11.64 0 7.5ZM10.4775 4.5H12.69C11.97 3.2625 10.8225 2.3025 9.4425 1.83C9.8925 2.6625 10.2375 3.5625 10.4775 4.5ZM7.5 1.53C8.1225 2.43 8.61 3.4275 8.9325 4.5H6.0675C6.39 3.4275 6.8775 2.43 7.5 1.53ZM1.5 7.5C1.5 8.0175 1.575 8.52 1.695 9H4.23C4.17 8.505 4.125 8.01 4.125 7.5C4.125 6.99 4.17 6.495 4.23 6H1.695C1.575 6.48 1.5 6.9825 1.5 7.5ZM2.31 10.5H4.5225C4.7625 11.4375 5.1075 12.3375 5.5575 13.17C4.1775 12.6975 3.03 11.745 2.31 10.5ZM2.31 4.5H4.5225C4.7625 3.5625 5.1075 2.6625 5.5575 1.83C4.1775 2.3025 3.03 3.255 2.31 4.5ZM7.5 13.47C6.8775 12.57 6.39 11.5725 6.0675 10.5H8.9325C8.61 11.5725 8.1225 12.57 7.5 13.47ZM5.625 7.5C5.625 8.01 5.6775 8.505 5.745 9H9.255C9.3225 8.505 9.375 8.01 9.375 7.5C9.375 6.99 9.3225 6.4875 9.255 6H5.745C5.6775 6.4875 5.625 6.99 5.625 7.5ZM9.4425 13.17C9.8925 12.3375 10.2375 11.4375 10.4775 10.5H12.69C11.97 11.7375 10.8225 12.6975 9.4425 13.17ZM10.875 7.5C10.875 8.01 10.83 8.505 10.77 9H13.305C13.425 8.52 13.5 8.0175 13.5 7.5C13.5 6.9825 13.425 6.48 13.305 6H10.77C10.83 6.495 10.875 6.99 10.875 7.5Z" fill="#6B6B6B"/>
</svg>
