<svg width="12" height="16" viewBox="0 0 12 16" fill="none" xmlns="http://www.w3.org/2000/svg">
<path d="M5.99999 0C4.40934 0.00211003 2.88445 0.634928 1.75969 1.75969C0.634928 2.88445 0.00211003 4.40934 0 5.99999C0 10.3075 5.58999 15.7025 5.82749 15.93C5.87369 15.9749 5.93557 16 5.99999 16C6.06441 16 6.1263 15.9749 6.17249 15.93C6.40999 15.7025 12 10.3075 12 5.99999C11.9979 4.40934 11.3651 2.88445 10.2403 1.75969C9.11554 0.634928 7.59064 0.00211003 5.99999 0ZM5.99999 8.74999C5.4561 8.74999 4.92441 8.58871 4.47218 8.28653C4.01994 7.98436 3.66747 7.55487 3.45933 7.05237C3.25119 6.54988 3.19673 5.99694 3.30284 5.4635C3.40895 4.93005 3.67086 4.44005 4.05545 4.05545C4.44005 3.67086 4.93005 3.40895 5.4635 3.30284C5.99694 3.19673 6.54988 3.25119 7.05237 3.45933C7.55487 3.66747 7.98436 4.01994 8.28653 4.47218C8.58871 4.92441 8.74999 5.4561 8.74999 5.99999C8.74955 6.7292 8.45968 7.42842 7.94405 7.94405C7.42842 8.45968 6.7292 8.74955 5.99999 8.74999Z" fill="#6B6B6B"/>
</svg>
