<svg width="15" height="15" viewBox="0 0 15 15" fill="none" xmlns="http://www.w3.org/2000/svg">
<path fill-rule="evenodd" clip-rule="evenodd" d="M7.5 14.972C6.08594 14.9684 4.70209 14.5626 3.51001 13.802L0 14.972L1.17004 11.461C0.288552 10.0543 -0.100415 8.39446 0.0644531 6.74257C0.229321 5.09068 0.938676 3.54044 2.08081 2.33568C3.22294 1.13092 4.73304 0.339992 6.37378 0.0872655C8.01452 -0.165461 9.6928 0.134372 11.1445 0.939591C12.5963 1.74481 13.7391 3.00974 14.3934 4.53545C15.0478 6.06115 15.1763 7.76106 14.759 9.36784C14.3417 10.9746 13.4022 12.3971 12.0881 13.4116C10.7741 14.4261 9.16009 14.975 7.5 14.972ZM9.13 8.60799C9.62878 8.77105 10.1362 8.90625 10.65 9.01299C10.7041 9.02094 10.7559 9.03972 10.8025 9.06819C10.8491 9.09666 10.8895 9.13426 10.9213 9.1787C10.953 9.22314 10.9755 9.27351 10.9873 9.32683C10.9991 9.38015 11 9.43531 10.99 9.489V9.77199C10.9949 9.87478 10.9759 9.9773 10.9342 10.0714C10.8925 10.1655 10.8294 10.2486 10.75 10.314C10.5035 10.5642 10.2117 10.7651 9.89001 10.906C9.41547 10.9624 8.93433 10.9206 8.47668 10.7829C8.01904 10.6453 7.59467 10.4148 7.22998 10.106C6.75956 9.7909 6.3209 9.43087 5.92004 9.03099C5.52083 8.62783 5.15925 8.189 4.83997 7.71999C4.53354 7.3551 4.30533 6.9312 4.16943 6.4745C4.03354 6.01781 3.99295 5.53804 4.05005 5.06499C4.19118 4.74512 4.39131 4.45472 4.64001 4.209C4.70338 4.12795 4.78586 4.06395 4.88013 4.02275C4.9744 3.98155 5.07753 3.96445 5.18005 3.97301H5.46997C5.57935 3.9579 5.69033 3.98678 5.77844 4.05333C5.86655 4.11988 5.92456 4.21865 5.93994 4.32799C6.08994 4.91999 6.19998 5.34799 6.34998 5.82799C6.40998 6.02799 6.34005 6.076 6.18005 6.196C6.08005 6.273 6.00004 6.32899 5.92004 6.38899C5.87368 6.40908 5.83201 6.43871 5.79785 6.47594C5.76369 6.51317 5.73771 6.55717 5.72168 6.60509C5.70564 6.653 5.69996 6.70375 5.70483 6.75404C5.70971 6.80434 5.72506 6.85304 5.75 6.89699C6.00538 7.38851 6.33224 7.83943 6.71997 8.235C7.11498 8.62346 7.56691 8.94954 8.06006 9.20201C8.1042 9.22654 8.15285 9.24164 8.20312 9.24635C8.2534 9.25107 8.30412 9.2453 8.35205 9.22942C8.39998 9.21353 8.44418 9.18788 8.48169 9.15407C8.5192 9.12026 8.54919 9.07904 8.56995 9.03301C8.62995 8.95201 8.68001 8.87699 8.76001 8.77199C8.7726 8.73612 8.79231 8.70316 8.81787 8.67503C8.84344 8.64691 8.87431 8.62418 8.90881 8.60823C8.94332 8.59229 8.98069 8.58344 9.01868 8.5822C9.05667 8.58096 9.09453 8.58734 9.13 8.601V8.60799Z" fill="white"/>
</svg>
