<svg width="12" height="17" viewBox="0 0 12 17" fill="none" xmlns="http://www.w3.org/2000/svg">
<path fill-rule="evenodd" clip-rule="evenodd" d="M10.9993 5.16667C10.9993 2.40833 8.75768 0.166667 5.99935 0.166667C3.24102 0.166667 0.999349 2.40833 0.999349 5.16667C0.999349 8.91667 5.99935 14.3333 5.99935 14.3333C5.99935 14.3333 10.9993 8.91667 10.9993 5.16667ZM4.33268 5.16667C4.33268 4.25 5.08268 3.5 5.99935 3.5C6.91602 3.5 7.66602 4.25 7.66602 5.16667C7.66602 6.08333 6.92435 6.83333 5.99935 6.83333C5.08268 6.83333 4.33268 6.08333 4.33268 5.16667ZM0.166016 16.8333V15.1667H11.8327V16.8333H0.166016Z" fill="#6B6B6B"/>
</svg>
