<svg width="18" height="15" viewBox="0 0 18 15" fill="none" xmlns="http://www.w3.org/2000/svg">
<path fill-rule="evenodd" clip-rule="evenodd" d="M15.6667 0.833374H2.33341C1.41675 0.833374 0.675081 1.58337 0.675081 2.50004L0.666748 12.5C0.666748 13.4167 1.41675 14.1667 2.33341 14.1667H15.6667C16.5834 14.1667 17.3334 13.4167 17.3334 12.5V2.50004C17.3334 1.58337 16.5834 0.833374 15.6667 0.833374ZM15.6667 11.6667C15.6667 12.125 15.2917 12.5 14.8334 12.5H3.16675C2.70841 12.5 2.33341 12.125 2.33341 11.6667V4.16671L8.11675 7.78337C8.65841 8.12504 9.34175 8.12504 9.88341 7.78337L15.6667 4.16671V11.6667ZM2.33341 2.50004L9.00008 6.66671L15.6667 2.50004H2.33341Z" fill="#6B6B6B"/>
</svg>
