<svg width="16" height="15" viewBox="0 0 16 15" fill="none" xmlns="http://www.w3.org/2000/svg">
<path fill-rule="evenodd" clip-rule="evenodd" d="M11.9015 9.9818L14.0182 10.2235C14.8599 10.3235 15.4932 11.0318 15.4849 11.8735V13.3151C15.4849 14.2568 14.7015 15.0401 13.7599 14.9818C6.65153 14.5401 0.959865 8.8568 0.518198 1.74014C0.459865 0.79847 1.2432 0.0151367 2.18486 0.0151367H3.62653C4.47653 0.0151367 5.18486 0.64847 5.28486 1.49014L5.52653 3.59014C5.58486 4.09847 5.40986 4.59847 5.05153 4.9568L3.50986 6.49847C4.70986 8.86514 6.6432 10.7901 9.00153 11.9901L10.5349 10.4568C10.8932 10.0985 11.3932 9.92347 11.9015 9.9818ZM8.72652 1.71513C11.3765 2.04846 13.4515 4.12346 13.7849 6.77346C13.8349 7.19846 14.1932 7.5068 14.6099 7.5068C14.6432 7.5068 14.6765 7.5068 14.7099 7.49846C15.1682 7.44013 15.4932 7.02346 15.4349 6.56513C15.0099 3.1568 12.3349 0.481798 8.92652 0.0567977C8.46819 0.00679773 8.05152 0.331798 8.00152 0.790131C7.94319 1.24846 8.26819 1.66513 8.72652 1.71513ZM9.04321 3.47346C8.60155 3.3568 8.14322 3.62346 8.02655 4.07346C7.90988 4.52346 8.17655 4.97346 8.62655 5.09013C9.50155 5.31513 10.1849 5.99846 10.4182 6.8818C10.5182 7.2568 10.8515 7.5068 11.2265 7.5068C11.2932 7.5068 11.3682 7.49846 11.4349 7.4818C11.8765 7.36513 12.1432 6.9068 12.0349 6.46513C11.6432 4.99013 10.5015 3.84846 9.04321 3.47346Z" fill="#6B6B6B"/>
</svg>
