<svg width="16" height="16" viewBox="0 0 16 16" fill="none" xmlns="http://www.w3.org/2000/svg">
<path fill-rule="evenodd" clip-rule="evenodd" d="M11.9015 10.4818L14.0182 10.7235C14.8598 10.8235 15.4932 11.5318 15.4848 12.3735V13.8151C15.4848 14.7568 14.7015 15.5401 13.7598 15.4818C6.6515 15.0401 0.959834 9.3568 0.518167 2.24013C0.459834 1.29847 1.24317 0.515133 2.18483 0.515133H3.6265C4.4765 0.515133 5.18483 1.14847 5.28483 1.99013L5.5265 4.09013C5.58483 4.59847 5.40983 5.09847 5.0515 5.4568L3.50983 6.99847C4.70983 9.36513 6.64317 11.2901 9.0015 12.4901L10.5348 10.9568C10.8932 10.5985 11.3932 10.4235 11.9015 10.4818ZM8.72649 2.21513C11.3765 2.54846 13.4515 4.62346 13.7848 7.27346C13.8348 7.69846 14.1932 8.00679 14.6098 8.00679C14.6432 8.00679 14.6765 8.00679 14.7098 7.99846C15.1682 7.94013 15.4932 7.52346 15.4348 7.06513C15.0098 3.65679 12.3348 0.981794 8.92649 0.556794C8.46816 0.506794 8.05149 0.831794 8.00149 1.29013C7.94316 1.74846 8.26816 2.16513 8.72649 2.21513ZM9.04318 3.97346C8.60152 3.85679 8.14318 4.12346 8.02652 4.57346C7.90985 5.02346 8.17652 5.47346 8.62652 5.59013C9.50152 5.81513 10.1849 6.49846 10.4182 7.38179C10.5182 7.75679 10.8515 8.00679 11.2265 8.00679C11.2932 8.00679 11.3682 7.99846 11.4349 7.98179C11.8765 7.86513 12.1432 7.40679 12.0349 6.96513C11.6432 5.49013 10.5015 4.34846 9.04318 3.97346Z" fill="#2F2E20"/>
</svg>
