<svg width="200" height="51" viewBox="0 0 200 51" fill="none" xmlns="http://www.w3.org/2000/svg">
<path d="M149.176 13.4689C149.176 13.8908 149.094 14.4141 148.928 15.038L148.185 17.8456C148.002 18.5063 147.699 19.0566 147.277 19.4973C146.983 19.8092 146.479 20.1854 145.763 20.6257C146.497 20.9195 146.864 21.4333 146.864 22.1672C146.864 22.5709 146.781 23.0755 146.616 23.6812L145.845 26.4887C145.424 28.012 144.818 29.122 144.029 29.8195C143.185 30.5718 141.992 30.948 140.45 30.948H125.531L130.843 11.1292H145.818C148.057 11.1292 149.176 11.9091 149.176 13.4689ZM140.726 22.8553H133.871L133.156 25.5254H140.01L140.726 22.8553ZM142.432 16.4968H135.578L134.918 18.8914H141.772L142.432 16.4968Z" fill="#2B2A29"/>
<path d="M189.282 11.1292L187.905 16.2491H181.85L177.913 30.948H171.692L175.629 16.2491H169.573L170.949 11.1292H189.282Z" fill="#2B2A29"/>
<path d="M168.995 11.1292L167.618 16.2491H157.048L156.36 18.8366H165.994L164.866 23.0205H155.232L154.543 25.5803H165.113L163.682 30.948H146.891L152.204 11.1292H168.995Z" fill="#2B2A29"/>
<path d="M128.917 11.1292L127.54 16.2491H115.787L113.282 25.5803H125.036L123.604 30.948H111.85C109.979 30.948 108.648 30.7369 107.859 30.3149C107.07 29.8929 106.676 29.1588 106.676 28.1128C106.676 27.4521 106.813 26.6082 107.089 25.5803L109.593 16.2491C110.144 14.1938 111.025 12.7991 112.236 12.0652C113.264 11.4412 114.906 11.1292 117.163 11.1292H128.917Z" fill="#2B2A29"/>
<path d="M108.712 11.1292L103.399 30.948H97.1786L99.298 23.0205H92.6092L90.4897 30.948H84.2688L89.5813 11.1292H95.8024L93.7379 18.8366H100.427L102.491 11.1292H108.712Z" fill="#2B2A29"/>
<path d="M87.5722 11.1292L86.1957 16.2491H75.6257L74.9376 18.8366H84.5719L83.4432 23.0205H73.8089L73.1208 25.5803H83.6908L82.2597 30.948H65.4685L70.781 11.1292H87.5722Z" fill="#2B2A29"/>
<path d="M69.1568 11.1292L67.7806 16.2491H57.4307L53.4944 30.948H47.2734L52.5859 11.1292H69.1568Z" fill="#2B2A29"/>
<path fill-rule="evenodd" clip-rule="evenodd" d="M18.8803 0.463989C29.3075 0.463989 37.7604 8.91675 37.7604 19.3441C37.7604 29.7714 29.3075 38.2241 18.8803 38.2241C8.4529 38.2241 0 29.7714 0 19.3441C0 8.91675 8.4529 0.463989 18.8803 0.463989ZM18.8729 2.90095C27.9543 2.90095 35.3162 10.2629 35.3162 19.3441C35.3162 28.4254 27.9543 35.7872 18.8729 35.7872C10.5698 35.7872 3.70536 29.6326 2.58945 21.637H10.5523C11.3464 23.4098 13.1263 24.645 15.1947 24.645C18.0028 24.645 20.2792 22.3685 20.2792 19.5605C20.2792 16.7525 18.0028 14.476 15.1947 14.476C12.6889 14.476 10.6069 16.2887 10.1873 18.674H2.44433C2.79605 9.90362 10.0161 2.90095 18.8729 2.90095Z" fill="#FFED00"/>
<path fill-rule="evenodd" clip-rule="evenodd" d="M18.8729 2.90088C27.9543 2.90088 35.3162 10.2627 35.3162 19.3441C35.3162 28.4253 27.9543 35.7873 18.8729 35.7873C10.5699 35.7873 3.70536 29.6327 2.58945 21.6368H10.5523C11.3464 23.4097 13.1263 24.6449 15.1947 24.6449C18.0028 24.6449 20.2792 22.3686 20.2792 19.5604C20.2792 16.7524 18.0028 14.476 15.1947 14.476C12.689 14.476 10.6069 16.2886 10.1875 18.674H2.44434C2.79605 9.90355 10.0161 2.90088 18.8729 2.90088Z" fill="#2B2A29"/>
<path d="M196.486 11.5743C197.089 11.5743 197.667 11.7248 198.219 12.0269C198.774 12.3278 199.209 12.7599 199.526 13.3222C199.842 13.8843 200 14.4732 200 15.0887C200 15.701 199.845 16.2837 199.535 16.8397C199.223 17.394 198.791 17.8264 198.237 18.138C197.681 18.4481 197.098 18.6031 196.486 18.6031C195.873 18.6031 195.291 18.4481 194.735 18.138C194.18 17.8264 193.748 17.394 193.436 16.8397C193.126 16.2837 192.971 15.701 192.971 15.0887C192.971 14.4732 193.129 13.8843 193.446 13.3222C193.762 12.7599 194.197 12.3278 194.752 12.0269C195.305 11.7248 195.883 11.5743 196.486 11.5743ZM196.489 12.2697C196.005 12.2697 195.541 12.3903 195.098 12.6314C194.655 12.8727 194.306 13.2188 194.05 13.6714C193.795 14.1225 193.667 14.5971 193.667 15.0903C193.667 15.5822 193.792 16.0519 194.041 16.4966C194.29 16.943 194.638 17.2908 195.084 17.5413C195.53 17.7919 195.998 17.9171 196.489 17.9171C196.98 17.9171 197.449 17.7919 197.894 17.5413C198.34 17.2908 198.688 16.943 198.938 16.4966C199.189 16.0519 199.314 15.5822 199.314 15.0903C199.314 14.5971 199.186 14.1225 198.93 13.6714C198.675 13.2188 198.326 12.8727 197.881 12.6314C197.435 12.3903 196.971 12.2697 196.489 12.2697ZM194.898 16.9681V13.247H195.653C196.36 13.247 196.758 13.2501 196.843 13.2562C197.093 13.2767 197.288 13.3267 197.427 13.4052C197.565 13.4819 197.681 13.6009 197.774 13.7622C197.867 13.9219 197.914 14.1005 197.914 14.2947C197.914 14.564 197.826 14.7927 197.651 14.9837C197.475 15.1748 197.23 15.2924 196.913 15.3393C197.026 15.3816 197.114 15.4286 197.175 15.4786C197.236 15.5288 197.32 15.6243 197.427 15.7637C197.455 15.8013 197.546 15.9517 197.703 16.2179L198.139 16.9681H197.2L196.891 16.362C196.683 15.9563 196.511 15.6995 196.374 15.5945C196.237 15.4897 196.064 15.4363 195.854 15.4363H195.659V16.9681H194.898ZM195.659 14.8444H195.964C196.399 14.8444 196.67 14.8271 196.775 14.7944C196.88 14.7613 196.963 14.7034 197.024 14.6204C197.085 14.5373 197.115 14.4435 197.115 14.3369C197.115 14.2352 197.085 14.1427 197.026 14.0629C196.966 13.983 196.882 13.925 196.772 13.8907C196.663 13.8562 196.393 13.8389 195.964 13.8389H195.659V14.8444Z" fill="#2B2A29"/>
<path d="M78.993 47.1346H79.6023C79.4958 47.8112 79.2421 48.3874 78.8412 48.8636C78.3777 49.4148 77.817 49.6905 77.1592 49.6905C76.5766 49.6905 76.1569 49.4932 75.9001 49.0985C75.687 48.7728 75.5806 48.3123 75.5806 47.7171C75.5806 47.429 75.6056 47.1001 75.6558 46.7306C75.687 46.4737 75.7372 46.1637 75.8062 45.8003C75.9127 45.1864 76.041 44.6727 76.1914 44.2592C76.4043 43.6705 76.6738 43.2163 76.9995 42.8969C77.4067 42.5021 77.8984 42.3048 78.4747 42.3048C78.9947 42.3048 79.3924 42.4647 79.668 42.7841C79.9249 43.0784 80.0534 43.4794 80.0534 43.9869C80.0534 44.0808 80.0501 44.1591 80.0439 44.2218C80.0376 44.2843 80.0251 44.3784 80.0063 44.5036H79.3955C79.4018 44.4409 79.4066 44.3721 79.4097 44.2969C79.4128 44.2218 79.4144 44.1653 79.4144 44.1277C79.4144 43.7456 79.3423 43.4482 79.1982 43.2351C79.0245 42.9783 78.7456 42.8499 78.3651 42.8499C77.8655 42.8499 77.4567 43.091 77.1373 43.5733C76.8444 44.0119 76.5969 44.8012 76.3981 45.9413C76.3417 46.2858 76.301 46.5458 76.2759 46.7211C76.2259 47.0908 76.2008 47.3852 76.2008 47.6045C76.2008 48.0743 76.2759 48.4344 76.4263 48.685C76.6064 48.992 76.9071 49.1454 77.3252 49.1454C77.7997 49.1454 78.1865 48.9199 78.4872 48.4689C78.7127 48.1368 78.8804 47.6921 78.993 47.1346ZM80.2883 48.9763C80.4825 48.8572 80.6422 48.6349 80.7674 48.3092C80.8928 47.9835 81.0056 47.5418 81.1057 46.9842L81.895 42.474H85.4375L84.2911 48.9763H84.7297L84.4555 50.5346H83.8449L84.0233 49.5213H80.3806L80.2036 50.536H79.593L79.8655 48.9763H80.2883ZM83.6804 48.9763L84.7312 43.019H82.4103L81.6915 47.0767C81.6163 47.5089 81.5365 47.8581 81.4487 48.1212C81.3312 48.4783 81.1826 48.7633 81.0023 48.9763H83.6804ZM88.7076 49.5213H85.4657L86.7061 42.474H89.9009L89.8068 43.019H87.2213L86.775 45.556H89.1209L89.027 46.101H86.6779L86.1721 48.9763H88.8015L88.7076 49.5213ZM91.8067 43.019L91.0879 47.0767C90.8937 48.1808 90.6604 48.8917 90.3848 49.2112C90.1106 49.5307 89.7301 49.6905 89.243 49.6905L89.3464 49.0891C89.7661 49.0891 90.0605 48.8103 90.2296 48.2528C90.2986 48.0147 90.3895 47.5919 90.5022 46.9842L91.2914 42.474H94.834L93.5936 49.5213H92.9828L94.1276 43.019H91.8067ZM96.1165 46.8058H98.0021L97.7014 43.2351L96.1165 46.8058ZM97.4744 42.474H98.179L98.8275 49.5213H98.2136L98.0428 47.3507H95.8958L94.9326 49.5182L94.3454 49.5213L97.4744 42.474ZM100.181 49.5213H99.5699L100.81 42.474H101.421L100.893 45.4715H103.618L104.146 42.474H104.757L103.516 49.5213H102.906L103.523 46.0165H100.798L100.181 49.5213ZM106.721 49.6905C106.132 49.6905 105.709 49.4932 105.452 49.0985C105.239 48.7728 105.133 48.3092 105.133 47.7079C105.133 47.4259 105.154 47.1237 105.198 46.8011C105.242 46.4784 105.295 46.1448 105.358 45.8003C105.465 45.1802 105.593 44.6666 105.743 44.2592C105.956 43.6705 106.229 43.2163 106.561 42.8969C106.968 42.5021 107.46 42.3048 108.036 42.3048C108.637 42.3048 109.07 42.499 109.333 42.8875C109.552 43.2069 109.662 43.6642 109.662 44.2592C109.662 44.5287 109.64 44.8215 109.596 45.1379C109.552 45.4542 109.499 45.7909 109.436 46.148C109.317 46.8245 109.192 47.357 109.06 47.7453C108.854 48.3467 108.584 48.804 108.252 49.1172C107.851 49.4993 107.341 49.6905 106.721 49.6905ZM106.88 49.1454C107.513 49.1454 108.005 48.7477 108.356 47.9521C108.537 47.5387 108.706 46.8903 108.863 46.0071C108.901 45.8003 108.94 45.5434 108.98 45.2365C109.021 44.9296 109.041 44.6633 109.041 44.4378C109.041 43.9493 108.969 43.5797 108.825 43.329C108.644 43.0096 108.343 42.8499 107.923 42.8499C107.316 42.8499 106.833 43.2383 106.476 44.015C106.276 44.4598 106.1 45.1019 105.95 45.9413C105.894 46.2858 105.853 46.5458 105.828 46.7211C105.778 47.0908 105.753 47.3852 105.753 47.6045C105.753 48.0743 105.828 48.4344 105.978 48.685C106.16 48.992 106.461 49.1454 106.88 49.1454ZM113.899 46.101H113.26L112.755 48.9763H113.516C114.098 48.9763 114.532 48.8792 114.82 48.685C115.159 48.4533 115.378 48.0524 115.478 47.4822C115.503 47.3507 115.516 47.216 115.516 47.0783C115.516 46.6773 115.359 46.4048 115.046 46.2607C114.814 46.1542 114.432 46.101 113.899 46.101ZM113.358 45.556H113.986C114.537 45.556 114.947 45.4745 115.215 45.3117C115.553 45.1112 115.769 44.7449 115.863 44.2123C115.882 44.0995 115.892 43.9931 115.892 43.8929C115.892 43.5232 115.744 43.2758 115.45 43.1506C115.243 43.0628 114.885 43.019 114.377 43.019H113.804L113.358 45.556ZM113.016 49.5213H112.048L113.289 42.474H114.83C115.124 42.474 115.386 42.499 115.614 42.5492C115.843 42.5993 116.029 42.7027 116.173 42.8593C116.399 43.091 116.512 43.398 116.512 43.7801C116.512 43.8615 116.512 43.9429 116.512 44.0245C116.493 44.1059 116.48 44.1622 116.474 44.1935C116.412 44.5694 116.283 44.892 116.089 45.1613C115.876 45.462 115.591 45.6751 115.234 45.8003C115.541 45.8881 115.768 46.0383 115.915 46.2513C116.062 46.4644 116.136 46.7275 116.136 47.0407C116.136 47.1659 116.12 47.3163 116.089 47.4917C115.945 48.306 115.584 48.8667 115.008 49.1736C114.57 49.4054 113.906 49.5213 113.016 49.5213ZM119.575 49.5213H118.964L120.204 42.474H121.454C122.181 42.474 122.704 42.5648 123.023 42.7465C123.381 42.9516 123.559 43.3024 123.559 43.7957C123.559 43.8709 123.556 43.9524 123.55 44.0401C123.543 44.1262 123.531 44.2171 123.512 44.311C123.449 44.6555 123.351 44.9531 123.216 45.2067C123.081 45.4589 122.9 45.6704 122.671 45.8395C122.442 46.0071 122.146 46.1355 121.782 46.2231C121.5 46.2921 121.262 46.3265 121.067 46.3265H120.137L119.575 49.5213ZM120.72 43.019L120.233 45.7816H120.76C121.396 45.7816 121.861 45.7033 122.156 45.5467C122.546 45.3415 122.795 44.9484 122.901 44.3673C122.914 44.3047 122.923 44.2358 122.929 44.1622C122.936 44.087 122.939 44.0181 122.939 43.9554C122.939 43.6126 122.829 43.3698 122.608 43.2303C122.388 43.0895 122.057 43.019 121.617 43.019H120.72ZM125.514 49.6905C124.925 49.6905 124.502 49.4932 124.245 49.0985C124.032 48.7728 123.926 48.3092 123.926 47.7079C123.926 47.4259 123.947 47.1237 123.991 46.8011C124.035 46.4784 124.088 46.1448 124.151 45.8003C124.258 45.1802 124.386 44.6666 124.536 44.2592C124.749 43.6705 125.022 43.2163 125.354 42.8969C125.761 42.5021 126.253 42.3048 126.829 42.3048C127.43 42.3048 127.863 42.499 128.126 42.8875C128.345 43.2069 128.455 43.6642 128.455 44.2592C128.455 44.5287 128.433 44.8215 128.389 45.1379C128.345 45.4542 128.292 45.7909 128.229 46.148C128.11 46.8245 127.985 47.357 127.853 47.7453C127.647 48.3467 127.377 48.804 127.045 49.1172C126.644 49.4993 126.134 49.6905 125.514 49.6905ZM125.673 49.1454C126.306 49.1454 126.798 48.7477 127.149 47.9521C127.33 47.5387 127.499 46.8903 127.656 46.0071C127.693 45.8003 127.733 45.5434 127.773 45.2365C127.814 44.9296 127.834 44.6633 127.834 44.4378C127.834 43.9493 127.762 43.5797 127.618 43.329C127.437 43.0096 127.136 42.8499 126.716 42.8499C126.109 42.8499 125.626 43.2383 125.269 44.015C125.069 44.4598 124.893 45.1019 124.743 45.9413C124.687 46.2858 124.646 46.5458 124.621 46.7211C124.571 47.0908 124.546 47.3852 124.546 47.6045C124.546 48.0743 124.621 48.4344 124.771 48.685C124.953 48.992 125.254 49.1454 125.673 49.1454ZM132.609 47.1346H133.219C133.112 47.8112 132.859 48.3874 132.458 48.8636C131.994 49.4148 131.433 49.6905 130.776 49.6905C130.193 49.6905 129.773 49.4932 129.517 49.0985C129.303 48.7728 129.197 48.3123 129.197 47.7171C129.197 47.429 129.222 47.1001 129.272 46.7306C129.303 46.4737 129.354 46.1637 129.423 45.8003C129.529 45.1864 129.657 44.6727 129.808 44.2592C130.021 43.6705 130.29 43.2163 130.616 42.8969C131.023 42.5021 131.515 42.3048 132.091 42.3048C132.611 42.3048 133.009 42.4647 133.284 42.7841C133.541 43.0784 133.67 43.4794 133.67 43.9869C133.67 44.0808 133.667 44.1591 133.66 44.2218C133.654 44.2843 133.641 44.3784 133.623 44.5036H133.012C133.018 44.4409 133.023 44.3721 133.026 44.2969C133.029 44.2218 133.031 44.1653 133.031 44.1277C133.031 43.7456 132.959 43.4482 132.815 43.2351C132.641 42.9783 132.362 42.8499 131.982 42.8499C131.482 42.8499 131.073 43.091 130.754 43.5733C130.461 44.0119 130.213 44.8012 130.015 45.9413C129.958 46.2858 129.917 46.5458 129.892 46.7211C129.842 47.0908 129.817 47.3852 129.817 47.6045C129.817 48.0743 129.892 48.4344 130.043 48.685C130.223 48.992 130.523 49.1454 130.942 49.1454C131.416 49.1454 131.803 48.9199 132.104 48.4689C132.329 48.1368 132.497 47.6921 132.609 47.1346ZM137.834 47.1346H138.443C138.337 47.8112 138.083 48.3874 137.682 48.8636C137.219 49.4148 136.658 49.6905 136 49.6905C135.417 49.6905 134.998 49.4932 134.741 49.0985C134.528 48.7728 134.421 48.3123 134.421 47.7171C134.421 47.429 134.446 47.1001 134.497 46.7306C134.528 46.4737 134.578 46.1637 134.647 45.8003C134.754 45.1864 134.882 44.6727 135.032 44.2592C135.245 43.6705 135.515 43.2163 135.84 42.8969C136.248 42.5021 136.739 42.3048 137.316 42.3048C137.836 42.3048 138.233 42.4647 138.509 42.7841C138.766 43.0784 138.894 43.4794 138.894 43.9869C138.894 44.0808 138.891 44.1591 138.885 44.2218C138.878 44.2843 138.866 44.3784 138.847 44.5036H138.236C138.243 44.4409 138.247 44.3721 138.251 44.2969C138.254 44.2218 138.255 44.1653 138.255 44.1277C138.255 43.7456 138.183 43.4482 138.039 43.2351C137.865 42.9783 137.586 42.8499 137.206 42.8499C136.706 42.8499 136.298 43.091 135.978 43.5733C135.685 44.0119 135.438 44.8012 135.239 45.9413C135.183 46.2858 135.142 46.5458 135.117 46.7211C135.067 47.0908 135.042 47.3852 135.042 47.6045C135.042 48.0743 135.117 48.4344 135.267 48.685C135.447 48.992 135.748 49.1454 136.166 49.1454C136.641 49.1454 137.027 48.9199 137.328 48.4689C137.554 48.1368 137.721 47.6921 137.834 47.1346ZM143.707 42.474H144.466L143.226 49.5213H142.615L143.679 43.4763L139.978 49.5182L139.242 49.5213L140.482 42.474H141.093L140.041 48.5111L143.707 42.474ZM148.931 42.474H149.691L148.45 49.5213H147.84L148.903 43.4763L145.202 49.5182L144.466 49.5213L145.707 42.474H146.317L145.265 48.5111L148.931 42.474Z" fill="#2B2A29"/>
<path d="M156.995 44.9874H180.548V45.5424H156.995V44.9874Z" fill="#2B2A29"/>
<path d="M43.4878 44.9874H67.0404V45.5424H43.4878V44.9874Z" fill="#2B2A29"/>
</svg>
