<svg width="129" height="33" viewBox="0 0 129 33" fill="none" xmlns="http://www.w3.org/2000/svg">
<g clip-path="url(#clip0)">
<path d="M28.19 8.66532L36.4318 6.6894C37.9613 6.32512 39.2584 7.09783 40.1988 7.9478C41.2905 8.93024 41.8417 10.3929 41.8417 12.297V20.5098C41.8417 22.4139 41.2851 23.871 40.1988 24.859C39.253 25.72 37.9667 26.4982 36.4318 26.1671L28.19 24.3954V8.66532ZM36.4318 32.7461C39.7556 33.2594 42.5821 31.6202 44.8196 29.4069C47.1544 27.0998 48.3271 24.147 48.3271 20.4601V12.3467C48.3271 8.6598 47.1544 5.70696 44.8196 3.40541C42.6092 1.23079 39.7664 -0.469156 36.4318 0.110372L24.9689 2.08629C24.088 2.23531 23.3043 2.41193 22.699 3.02457C22.0667 3.66481 21.7478 4.432 21.7478 5.32061V27.7401C21.7478 28.6232 22.0667 29.3904 22.699 30.0361C23.3043 30.6543 24.088 30.8419 24.9689 30.9799L36.4318 32.7461Z" fill="#EF7F1A"/>
<path d="M56.9419 18.429C57.8337 16.4365 59.6766 15.1891 61.9735 15.1891C64.292 15.1891 66.2322 16.4365 67.124 18.429H56.9419ZM61.8438 33C64.2218 33 66.1025 32.5805 67.5347 31.7581C68.767 31.0406 69.3939 30.0803 69.3939 28.8715C69.3939 27.9608 69.1074 27.1661 68.5021 26.5037C67.8752 25.8304 67.124 25.4827 66.2539 25.4827C65.5945 25.4827 64.9892 25.6758 64.3893 26.0732C63.7354 26.4761 62.8869 26.6748 61.8438 26.6748C59.936 26.6748 58.1958 25.6041 57.1311 23.8931H70.5558C72.415 23.8931 73.7283 22.6623 73.7283 20.7912C73.6526 17.5293 72.4636 14.72 70.1667 12.3743C67.8212 10.0782 65.0649 8.91919 61.8438 8.91919C58.6551 8.91919 55.6827 10.1831 53.456 12.4295C51.1105 14.8249 49.9485 17.6507 49.9485 20.9734C49.9485 24.2463 51.1105 27.0777 53.456 29.4731C55.6827 31.7085 58.6822 33 61.8438 33Z" fill="#EF7F1A"/>
<path d="M78.8193 32.7461C79.684 32.7461 80.4352 32.4259 81.0405 31.8023C81.6512 31.2117 81.9647 30.4445 81.9647 29.5338V24.0421L90.1417 31.6808C90.8443 32.3487 91.6171 32.6688 92.5089 32.6688C93.3574 32.6688 94.0762 32.3211 94.7409 31.6036C95.3679 30.8861 95.6813 30.0692 95.6813 29.2082C95.6813 28.3913 95.3949 27.7235 94.8058 27.1771L87.5476 20.4214L93.4276 14.9021C94.1302 14.2619 94.4437 13.4947 94.4167 12.6061C94.4167 11.7396 94.0762 10.9558 93.4276 10.2383C92.7737 9.59806 92.0063 9.2669 91.1307 9.2669C90.3309 9.2669 89.6283 9.57046 89.023 10.1334L81.9647 16.7511L81.9917 3.55992C81.9917 2.6658 81.6945 1.89861 81.0892 1.28045C80.4839 0.662283 79.711 0.342163 78.8193 0.342163C77.9167 0.342163 77.1493 0.662283 76.5386 1.28045C75.8846 1.92069 75.5496 2.68787 75.5496 3.55992V29.5228C75.5496 30.3838 75.89 31.151 76.5386 31.7912C77.1493 32.4259 77.9167 32.7461 78.8193 32.7461Z" fill="#EF7F1A"/>
<path d="M107.404 26.421C105.928 26.421 104.696 25.9077 103.653 24.8425C102.588 23.7552 102.059 22.4636 102.059 20.9789C102.059 19.4943 102.588 18.2027 103.653 17.1154C104.691 16.0557 105.923 15.5369 107.404 15.5369C108.901 15.5369 110.155 16.0502 111.192 17.1154C112.235 18.1862 112.76 19.4667 112.76 20.9789C112.76 22.4857 112.23 23.7717 111.192 24.8425C110.149 25.9077 108.895 26.421 107.404 26.421ZM107.404 33C110.565 33 113.538 31.7195 115.743 29.4732C118.04 27.1385 119.202 24.2961 119.202 20.9789C119.202 17.7391 117.937 14.698 115.743 12.435C113.538 10.1942 110.565 8.9082 107.404 8.9082C104.161 8.9082 101.383 10.0893 99.0807 12.435C94.4653 16.8229 94.4653 25.1626 99.0807 29.4677C101.383 31.8189 104.156 33 107.404 33Z" fill="#EF7F1A"/>
<path fill-rule="evenodd" clip-rule="evenodd" d="M17.6025 27.8615L20.402 7.46766C20.6182 5.88362 19.5265 4.39892 17.9754 4.17815C16.4243 3.95737 14.9759 5.07228 14.7543 6.65632L11.9548 27.0502C11.7386 28.6342 12.8303 30.1134 14.3814 30.3397C15.9379 30.566 17.3863 29.4511 17.6025 27.8615Z" fill="#EF7F1A"/>
<path fill-rule="evenodd" clip-rule="evenodd" d="M10.3281 27.8615L13.1276 7.46766C13.3438 5.88362 12.2521 4.39892 10.701 4.17815C9.1499 3.95737 7.69609 5.07228 7.47991 6.65632L4.68037 27.0557C4.46419 28.6398 5.5559 30.1189 7.107 30.3452C8.66349 30.566 10.1119 29.4511 10.3281 27.8615Z" fill="#EF7F1A"/>
<path fill-rule="evenodd" clip-rule="evenodd" d="M5.65853 9.07922H5.58287C2.378 9.16753 -0.11888 12.9317 0.00542351 17.4851C0.0918955 20.6367 1.41059 23.3356 3.27515 24.6713L5.65853 9.07922Z" fill="#EF7F1A"/>
<path d="M124.109 3.96292H124.925C125.314 3.96292 125.579 3.90221 125.725 3.7863C125.865 3.6704 125.941 3.51034 125.941 3.31716C125.941 3.19022 125.909 3.07983 125.838 2.98048C125.768 2.88114 125.676 2.80939 125.557 2.75971C125.433 2.71004 125.211 2.68796 124.882 2.68796H124.114V3.96292H124.109ZM123.433 6.35831V2.10843H124.866C125.357 2.10843 125.709 2.14707 125.93 2.22434C126.152 2.30161 126.325 2.43959 126.454 2.63277C126.584 2.82594 126.649 3.03568 126.649 3.25645C126.649 3.56553 126.541 3.83598 126.319 4.06779C126.103 4.2996 125.811 4.42654 125.455 4.45414C125.601 4.51485 125.719 4.59212 125.806 4.68043C125.973 4.84601 126.179 5.1275 126.422 5.51937L126.93 6.35279H126.114L125.741 5.68495C125.449 5.1551 125.211 4.82946 125.038 4.69699C124.914 4.60316 124.736 4.55349 124.503 4.55349H124.109V6.35279H123.433V6.35831ZM125.136 0.877624C124.59 0.877624 124.06 1.02113 123.547 1.30261C123.033 1.5841 122.628 1.99253 122.342 2.52238C122.05 3.05224 121.904 3.60417 121.904 4.17266C121.904 4.74115 122.05 5.28756 122.331 5.81189C122.617 6.33623 123.017 6.73914 123.531 7.03166C124.044 7.32419 124.579 7.46769 125.136 7.46769C125.692 7.46769 126.227 7.32419 126.741 7.03166C127.254 6.73914 127.654 6.33071 127.935 5.81189C128.216 5.28756 128.362 4.74667 128.362 4.17266C128.362 3.59865 128.216 3.05224 127.93 2.52238C127.643 1.99253 127.238 1.5841 126.725 1.30261C126.2 1.02113 125.676 0.877624 125.136 0.877624ZM125.136 0.220825C125.784 0.220825 126.417 0.391924 127.038 0.734122C127.654 1.07632 128.141 1.56202 128.487 2.19674C128.832 2.83146 129.005 3.49378 129.005 4.17818C129.005 4.85705 128.838 5.51385 128.492 6.14305C128.151 6.77226 127.676 7.25796 127.06 7.60567C126.444 7.95339 125.801 8.13001 125.136 8.13001C124.466 8.13001 123.822 7.95891 123.206 7.60567C122.59 7.25796 122.115 6.77226 121.774 6.14305C121.434 5.51385 121.261 4.85705 121.261 4.17818C121.261 3.49378 121.434 2.83146 121.78 2.19674C122.125 1.56202 122.612 1.07632 123.228 0.734122C123.849 0.391924 124.482 0.220825 125.136 0.220825Z" fill="#EF7F1A"/>
<path fill-rule="evenodd" clip-rule="evenodd" d="M112.938 1.6172H110.792C109.382 1.6172 108.836 1.9594 108.836 2.8149C108.836 3.89116 109.36 4.09538 110.803 4.09538H112.679C113.403 4.09538 113.484 4.26648 113.484 4.57004C113.484 4.91224 113.273 5.06126 112.716 5.06126H110.598C110.241 5.06126 109.971 4.86808 109.971 4.65835H108.706C108.706 5.48073 109.112 5.86156 110.457 5.86156H113.008C114.257 5.86156 114.743 5.46969 114.743 4.57004C114.743 3.3889 114.181 3.28956 113.014 3.28956H110.706C110.355 3.28956 110.095 3.23988 110.095 2.85353C110.095 2.52789 110.344 2.41199 110.706 2.41199H112.83C113.365 2.41199 113.478 2.54445 113.478 2.80938H114.743C114.738 1.99252 114.213 1.6172 112.938 1.6172ZM103.329 4.08986H105.912C106.566 4.08986 106.636 4.2444 106.636 4.56452C106.636 4.93983 106.544 5.06126 105.869 5.06126H103.334V4.08986H103.329ZM102.064 5.86156H106.128C107.323 5.86156 107.896 5.52488 107.896 4.61419C107.896 3.94636 107.56 3.76422 107.036 3.62072C107.463 3.51033 107.69 3.36131 107.69 2.67691C107.69 1.89317 107.042 1.61168 105.869 1.61168H102.064V5.86156V5.86156ZM103.329 2.4175H105.901C106.253 2.4175 106.426 2.58308 106.426 2.83697C106.426 3.11846 106.253 3.33371 105.907 3.33371H103.323V2.4175H103.329ZM96.3786 3.99051L97.4216 2.41199H97.4811L98.4863 3.99051H96.3786ZM95.1788 5.86156L95.8651 4.79081H98.9943L99.6699 5.86156H101.156L98.3782 1.6172H96.5029L93.7033 5.86156H95.1788ZM88.2826 5.86156H92.8116V5.0171H89.5473V1.6172H88.2826V5.86156ZM83.8726 3.73662C83.8726 1.8159 85.6128 0.248413 87.7422 0.248413H115.273C117.402 0.248413 119.142 1.8159 119.142 3.73662C119.142 5.65734 117.402 7.22483 115.273 7.22483H87.7422C85.6182 7.23035 83.8726 5.65734 83.8726 3.73662Z" fill="#2F2E20"/>
</g>
<defs>
<clipPath id="clip0">
<rect width="129" height="33" fill="white"/>
</clipPath>
</defs>
</svg>
