<svg width="32" height="30" viewBox="0 0 32 30" fill="none" xmlns="http://www.w3.org/2000/svg">
<path d="M15.9429 21.8583L15.3267 22.2859L15.9429 23.1737L16.559 22.2859L15.9429 21.8583ZM7.25714 16.6437V15.8937H6.76118L6.56701 16.3501L7.25714 16.6437ZM2 29L1.30987 28.7064L0.865842 29.75H2V29ZM24.7429 16.6437L25.433 16.3501L25.2388 15.8937H24.7429V16.6437ZM30 29V29.75H31.1342L30.6901 28.7064L30 29ZM9.65714 22.4743L9.30518 21.812L9.65714 22.4743ZM14.5522 19.8729L15.1654 19.441L14.5522 19.8729ZM12.3086 16.6437L12.9312 16.2255L12.3086 16.6437ZM18.9807 17.5194L19.5983 17.945L18.9807 17.5194ZM9.60714 8.24551C9.60714 4.56336 12.1615 1.75 15.9429 1.75V0.25C11.2664 0.25 8.10714 3.80324 8.10714 8.24551H9.60714ZM23.7786 8.24551C23.7786 3.80324 20.6193 0.25 15.9429 0.25V1.75C19.7242 1.75 22.2786 4.56336 22.2786 8.24551H23.7786ZM6.56701 16.3501L2.66033 25.5323L4.04059 26.1195L7.94728 16.9374L6.56701 16.3501ZM2.66033 25.5323L1.30987 28.7064L2.69013 29.2936L4.04059 26.1195L2.66033 25.5323ZM24.7429 15.8937H20.6286V17.3937H24.7429V15.8937ZM24.0527 16.9374L27.1395 24.1924L28.5198 23.6052L25.433 16.3501L24.0527 16.9374ZM27.1395 24.1924L29.3099 29.2936L30.6901 28.7064L28.5198 23.6052L27.1395 24.1924ZM30 28.25H18.4571V29.75H30V28.25ZM27.4711 23.24L18.0986 28.3413L18.8157 29.6587L28.1882 24.5575L27.4711 23.24ZM3.70242 26.4882L10.0091 23.1366L9.30518 21.812L2.9985 25.1636L3.70242 26.4882ZM18.4571 28.25H16.0571V29.75H18.4571V28.25ZM16.0571 28.25H2V29.75H16.0571V28.25ZM9.12168 22.9995L15.5217 29.5251L16.5926 28.4749L10.1926 21.9492L9.12168 22.9995ZM17.25 8.02834C17.25 8.73532 16.6705 9.31883 15.9429 9.31883V10.8188C17.4874 10.8188 18.75 9.57522 18.75 8.02834H17.25ZM15.9429 9.31883C15.2152 9.31883 14.6357 8.73532 14.6357 8.02834H13.1357C13.1357 9.57522 14.3983 10.8188 15.9429 10.8188V9.31883ZM14.6357 8.02834C14.6357 7.32136 15.2152 6.73785 15.9429 6.73785V5.23785C14.3983 5.23785 13.1357 6.48146 13.1357 8.02834H14.6357ZM15.9429 6.73785C16.6705 6.73785 17.25 7.32136 17.25 8.02834H18.75C18.75 6.48146 17.4874 5.23785 15.9429 5.23785V6.73785ZM10.0091 23.1366L14.9042 20.5352L14.2002 19.2106L9.30518 21.812L10.0091 23.1366ZM16.559 21.4307C16.0773 20.7366 15.6115 20.0744 15.1654 19.441L13.939 20.3048C14.385 20.938 14.8482 21.5965 15.3267 22.2859L16.559 21.4307ZM15.1654 19.441C14.3482 18.2808 13.5998 17.2209 12.9312 16.2255L11.686 17.0619C12.366 18.0742 13.1252 19.1493 13.939 20.3048L15.1654 19.441ZM12.9312 16.2255C10.8153 13.0758 9.60714 10.7195 9.60714 8.24551H8.10714C8.10714 11.2148 9.56655 13.9068 11.686 17.0619L12.9312 16.2255ZM12.3086 15.8937H7.25714V17.3937H12.3086V15.8937ZM20.6286 15.8937H19.5771V17.3937H20.6286V15.8937ZM20.1997 17.0619C22.3192 13.9068 23.7786 11.2148 23.7786 8.24551H22.2786C22.2786 10.7195 21.0704 13.0758 18.9546 16.2255L20.1997 17.0619ZM16.559 22.2859C17.6492 20.7151 18.6994 19.2495 19.5983 17.945L18.3631 17.0939C17.4499 18.4193 16.4511 19.8106 15.3267 21.4307L16.559 22.2859ZM19.5983 17.945C19.8046 17.6456 20.0053 17.3514 20.1997 17.0619L18.9546 16.2255C18.7641 16.5091 18.5668 16.7983 18.3631 17.0939L19.5983 17.945Z" fill="white"/>
</svg>
