<svg width="18" height="16" viewBox="0 0 18 16" fill="none" xmlns="http://www.w3.org/2000/svg">
<path fill-rule="evenodd" clip-rule="evenodd" d="M4.00033 0.5H14.0003V3.83333H4.00033V0.5ZM3.16699 4.66667H14.8337C16.217 4.66667 17.3337 5.78333 17.3337 7.16667V12.1667H14.0003V15.5H4.00033V12.1667H0.666992V7.16667C0.666992 5.78333 1.78366 4.66667 3.16699 4.66667ZM5.66699 13.8333H12.3337V9.66667H5.66699V13.8333ZM14.8337 8C14.3753 8 14.0003 7.625 14.0003 7.16667C14.0003 6.70833 14.3753 6.33333 14.8337 6.33333C15.292 6.33333 15.667 6.70833 15.667 7.16667C15.667 7.625 15.292 8 14.8337 8Z" fill="#2F2E20"/>
</svg>
