<svg width="20" height="20" viewBox="0 0 20 20" fill="none" xmlns="http://www.w3.org/2000/svg">
<path d="M9.34353 5.87192C9.31203 5.97817 9.27708 6.09602 9.24213 6.23582C9.01942 5.23364 9.01942 4.45416 9.24213 3.78604C9.35348 3.78604 9.35348 3.67468 9.35348 3.67468L9.46484 3.78604V3.89739C9.57619 4.00874 9.57619 4.45416 9.46484 5.01093V5.23364C9.46484 5.46285 9.41241 5.63964 9.34353 5.87192Z" fill="#2F2E20"/>
<path d="M5.34475 14.2533C5.4561 14.1419 5.67881 14.0306 5.90152 13.9192C5.2334 15.2555 4.56527 15.9236 3.89715 16.0349C4.00851 15.7008 4.56527 14.9214 5.34475 14.2533Z" fill="#2F2E20"/>
<path d="M14.0303 11.8035C15.5893 11.8035 16.0347 12.1376 16.1461 12.2489C16.1461 12.3603 16.2574 12.3603 16.2574 12.3603V12.4716H15.9234C15.3666 12.4716 14.5871 12.2489 13.8076 11.9149V11.8035H14.0303Z" fill="#2F2E20"/>
<path d="M8.54197 10.8013C8.87689 10.0668 9.18155 9.39871 9.35348 8.79695C9.7989 9.79914 10.467 10.69 11.0238 11.3581C11.1351 11.4694 11.2465 11.5808 11.4692 11.6922C10.5784 11.8035 9.24213 12.1376 7.79453 12.6943H7.57182C7.6832 12.4716 7.79458 12.2767 7.90595 12.0818C8.01728 11.8869 8.12861 11.6921 8.23995 11.4694C8.3415 11.2409 8.44306 11.0182 8.54197 10.8013Z" fill="#2F2E20"/>
<path fill-rule="evenodd" clip-rule="evenodd" d="M20 0H0V20H20V0ZM15.5893 13.3625C16.0347 13.3625 16.3687 13.2511 16.5915 13.1397C16.7219 13.0093 16.8142 12.8406 16.8906 12.7009C16.9446 12.6021 16.9908 12.5178 17.0369 12.4716C17.0369 12.2489 17.0369 12.0263 16.9255 11.8035C16.5915 11.2467 15.7006 11.024 14.3644 11.024C14.1541 11.024 13.9438 11.0489 13.7218 11.0751C13.4736 11.1044 13.2107 11.1354 12.9168 11.1354C12.6199 10.9869 12.4219 10.8384 12.2239 10.69C12.125 10.6157 12.026 10.5415 11.9146 10.4673C11.2465 9.79914 10.5784 8.79695 10.133 7.57206V7.46071C10.5784 6.01311 10.9125 4.23145 10.133 3.45198C9.91025 3.34062 9.68754 3.22927 9.46484 3.22927H9.24213C8.79672 3.22927 8.46265 3.67468 8.3513 4.1201C7.90589 5.67905 8.12859 6.45853 8.57401 7.79477C8.52692 7.93604 8.47983 8.07953 8.43211 8.22491C8.14134 9.11089 7.8274 10.0675 7.34912 11.024C7.14479 11.3816 6.9639 11.7157 6.7957 12.0264C6.59722 12.393 6.4164 12.727 6.23558 13.0284C5.97472 13.1588 5.75206 13.2892 5.56759 13.3973C5.43707 13.4737 5.32567 13.539 5.2334 13.5851C3.89715 14.3646 3.22903 15.3668 3.11768 15.9236C3.11768 16.1463 3.11768 16.2576 3.22903 16.4804V16.5917L3.7858 16.9257C3.89715 17.0371 4.00851 17.0371 4.23121 17.0371C5.12204 17.0371 6.23558 15.9236 7.57182 13.5851C7.68318 13.4738 7.68318 13.4738 7.79453 13.4738C8.90807 13.0284 10.3557 12.8057 12.2487 12.583C13.3622 13.1397 14.6985 13.3625 15.5893 13.3625Z" fill="#2F2E20"/>
</svg>
