<svg width="14" height="17" viewBox="0 0 14 17" fill="none" xmlns="http://www.w3.org/2000/svg">
<path d="M6.87499 0C5.18493 0.00224191 3.56473 0.674611 2.36967 1.86967C1.17461 3.06473 0.502242 4.68493 0.5 6.37499C0.5 10.9517 6.43937 16.6839 6.69171 16.9256C6.7408 16.9733 6.80655 17 6.87499 17C6.94344 17 7.00919 16.9733 7.05827 16.9256C7.31062 16.6839 13.25 10.9517 13.25 6.37499C13.2477 4.68493 12.5754 3.06473 11.3803 1.86967C10.1853 0.674611 8.56506 0.00224191 6.87499 0ZM6.87499 9.29686C6.2971 9.29686 5.73219 9.1255 5.25169 8.80444C4.77119 8.48338 4.39669 8.02705 4.17554 7.49314C3.95439 6.95924 3.89652 6.37175 4.00926 5.80496C4.12201 5.23818 4.40029 4.71755 4.80892 4.30892C5.21755 3.90029 5.73818 3.62201 6.30496 3.50926C6.87175 3.39652 7.45924 3.45439 7.99314 3.67554C8.52705 3.89668 8.98338 4.27119 9.30444 4.75169C9.6255 5.23219 9.79686 5.7971 9.79686 6.37499C9.7964 7.14978 9.48841 7.8927 8.94056 8.44056C8.3927 8.98841 7.64978 9.2964 6.87499 9.29686Z" fill="black"/>
</svg>
