<svg width="13" height="13" viewBox="0 0 13 13" fill="none" xmlns="http://www.w3.org/2000/svg">
<path fill-rule="evenodd" clip-rule="evenodd" d="M6.41699 12.6434C5.23861 12.6404 4.0854 12.3022 3.092 11.6683L0.166992 12.6434L1.14203 9.71753C0.407452 8.54526 0.0833128 7.16207 0.220703 5.7855C0.358093 4.40892 0.949223 3.11705 1.901 2.11309C2.85278 1.10912 4.11119 0.450013 5.47848 0.239408C6.84576 0.028803 8.24432 0.278663 9.4541 0.949679C10.6639 1.6207 11.6163 2.6748 12.1615 3.94623C12.7068 5.21765 12.814 6.63424 12.4662 7.97322C12.1184 9.31221 11.3355 10.4976 10.2404 11.343C9.14539 12.1884 7.8004 12.6458 6.41699 12.6434ZM7.77533 7.34001C8.19097 7.47589 8.61386 7.58857 9.04201 7.67751C9.08704 7.68414 9.13023 7.69979 9.16907 7.72351C9.20791 7.74724 9.24159 7.77857 9.26805 7.8156C9.2945 7.85263 9.31323 7.89461 9.32308 7.93904C9.33293 7.98348 9.33365 8.02945 9.32532 8.07419V8.31001C9.32944 8.39567 9.31355 8.4811 9.27883 8.55952C9.24411 8.63793 9.19152 8.70718 9.12533 8.7617C8.91995 8.97018 8.67673 9.13759 8.40867 9.25501C8.01322 9.30205 7.61227 9.26715 7.2309 9.15245C6.84953 9.03775 6.49588 8.84573 6.19198 8.58836C5.79996 8.32577 5.43441 8.02575 5.10036 7.69251C4.76769 7.35654 4.46637 6.99085 4.2003 6.60001C3.94494 6.29594 3.75476 5.94269 3.64152 5.56211C3.52828 5.18152 3.49445 4.78172 3.54203 4.38751C3.65964 4.12095 3.82641 3.87896 4.03367 3.67419C4.08647 3.60664 4.15521 3.55331 4.23376 3.51898C4.31232 3.48465 4.39827 3.4704 4.4837 3.47753H4.7253C4.81645 3.46494 4.90894 3.489 4.98236 3.54446C5.05579 3.59992 5.10413 3.68223 5.11694 3.77334C5.24194 4.26668 5.33364 4.62334 5.45864 5.02334C5.50864 5.19001 5.45037 5.23002 5.31704 5.33002C5.2337 5.39419 5.16703 5.44085 5.10036 5.49085C5.06172 5.50759 5.027 5.53228 4.99854 5.5633C4.97007 5.59433 4.94842 5.631 4.93506 5.67093C4.9217 5.71086 4.91696 5.75315 4.92102 5.79506C4.92508 5.83697 4.93788 5.87756 4.95866 5.91418C5.17148 6.32378 5.44386 6.69954 5.76697 7.02919C6.09614 7.35291 6.47275 7.62464 6.88371 7.83503C6.92049 7.85547 6.96103 7.86805 7.00293 7.87198C7.04483 7.87591 7.08709 7.8711 7.12703 7.85787C7.16698 7.84463 7.20381 7.82325 7.23507 7.79508C7.26632 7.7669 7.29131 7.73255 7.30861 7.69419C7.35861 7.62669 7.40033 7.56418 7.467 7.47668C7.47749 7.44679 7.49391 7.41932 7.51522 7.39588C7.53652 7.37244 7.56225 7.3535 7.591 7.34021C7.61976 7.32692 7.6509 7.31956 7.68256 7.31852C7.71422 7.31748 7.74577 7.32281 7.77533 7.33419V7.34001Z" fill="#2F2E20"/>
</svg>
