<svg width="15" height="15" viewBox="0 0 15 15" fill="none" xmlns="http://www.w3.org/2000/svg">
<path d="M3 0H12C13.6569 0 15 1.34315 15 3V12C15 13.6569 13.6569 15 12 15H9.00909V9.98804H11.3831L11.6931 7.98102H9.00909V5.47202C9.01792 5.39454 9.04279 5.31977 9.08209 5.25241C9.12139 5.18506 9.17431 5.12662 9.23743 5.08081C9.30054 5.03501 9.37245 5.00282 9.44867 4.98633C9.52489 4.96984 9.60371 4.96939 9.68011 4.98502C10.1221 4.97902 10.9881 4.98004 10.9881 4.98004L11.3001 3.00003C10.5008 2.94558 9.69855 2.95161 8.90015 3.01804C8.34332 3.09216 7.83432 3.3718 7.47314 3.80203C7.13226 4.26334 6.96346 4.82938 6.99609 5.40204V7.99402L4.99609 7.97903V9.98602L6.99609 9.99304V15H3C1.34315 15 0 13.6569 0 12V3C0 1.34315 1.34315 0 3 0Z" fill="#2F2E20"/>
</svg>
