<svg width="15" height="14" viewBox="0 0 15 14" fill="none" xmlns="http://www.w3.org/2000/svg">
<path fill-rule="evenodd" clip-rule="evenodd" d="M12.9809 12.1C12.9626 12.299 12.8851 12.488 12.7584 12.6426C12.6317 12.7971 12.4616 12.9101 12.27 12.967C12.0784 13.024 11.8743 13.0222 11.6837 12.9619C11.4931 12.9017 11.3249 12.7857 11.2009 12.629C10.1109 11.762 8.41099 10.514 8.41099 10.514C8.41099 10.514 7.18091 12.681 6.96092 12.903C6.8883 12.9642 6.80379 13.0096 6.71262 13.0362C6.62146 13.0628 6.52563 13.0701 6.4315 13.0575C6.33736 13.045 6.24691 13.013 6.16587 12.9634C6.08483 12.9139 6.01502 12.848 5.96092 12.77C5.94969 12.7359 5.93641 12.7025 5.921 12.67L6.61094 9.21799L11.531 4.38501L4.8209 8.21399C4.8209 8.21399 1.79092 7.30802 1.34092 7.13102C1.22484 7.06761 1.12911 6.97259 1.0648 6.857C1.00049 6.74141 0.970313 6.60998 0.977639 6.47791C0.984965 6.34584 1.02948 6.21855 1.10618 6.11078C1.18288 6.00302 1.2886 5.91917 1.41099 5.86899C2.05099 5.54299 13.3409 1.231 13.7209 1.12C14.1009 1.009 15.1009 0.719997 14.9909 1.693C14.8809 2.666 13.0909 11.566 12.9809 12.1Z" fill="#2F2E20"/>
</svg>
