<svg width="16" height="10" viewBox="0 0 16 10" fill="none" xmlns="http://www.w3.org/2000/svg">
<path fill-rule="evenodd" clip-rule="evenodd" d="M8.9939 1.77001V5.02703C8.99037 5.08083 8.99966 5.1347 9.02106 5.18419C9.04246 5.23369 9.07533 5.27738 9.11694 5.31166C9.15856 5.34595 9.2077 5.36986 9.26038 5.3814C9.31305 5.39293 9.36772 5.39176 9.41986 5.37801C9.71986 5.35701 10.3979 2.578 10.6989 1.972C10.8586 1.63031 11.1153 1.3431 11.4369 1.14601C11.5382 1.05423 11.6675 0.999271 11.8039 0.990009H14.6819C14.7596 1.00309 14.8327 1.03574 14.8942 1.08486C14.9558 1.13398 15.0038 1.19797 15.0338 1.2708C15.0638 1.34363 15.0748 1.42287 15.0657 1.50112C15.0566 1.57936 15.0278 1.654 14.9819 1.71801C14.7569 2.21801 12.8269 5.32803 12.7269 5.45403C12.6065 5.61662 12.5254 5.80485 12.4899 6.00402C12.5292 6.23939 12.6378 6.4577 12.8019 6.63103C13.0019 6.85703 14.6179 8.63603 14.7689 8.78603C14.9112 8.94943 15.0063 9.14857 15.0439 9.36202C15.0078 9.54398 14.9068 9.70659 14.7595 9.81942C14.6123 9.93224 14.429 9.98755 14.2439 9.97502C13.6179 9.97502 12.0779 9.97502 11.9019 9.97502C11.5501 9.85192 11.2265 9.65984 10.9499 9.41002C10.7249 9.21002 9.89087 8.25801 9.76587 8.13301C9.72356 8.08213 9.6695 8.04234 9.60834 8.01708C9.54718 7.99181 9.48074 7.98184 9.41486 7.98803C9.26486 7.98803 8.97986 8.00302 8.99286 8.57302C9.02859 8.96791 8.94575 9.36448 8.75488 9.71202C8.65724 9.80564 8.54153 9.87833 8.41479 9.92562C8.28806 9.97291 8.15298 9.99379 8.01788 9.98702C6.995 10.049 5.97776 9.79525 5.10388 9.26003C3.52988 8.28303 1.73787 5.67203 0.90387 4.00603C0.406398 3.1789 0.0990228 2.25151 0.00390625 1.291C0.0539063 1.115 0.0538584 0.991016 0.229858 0.991016C0.405858 0.991016 2.6189 0.991016 2.8299 0.991016C2.97619 1.06312 3.09821 1.17643 3.18091 1.317C3.25591 1.417 3.82787 3.12901 4.00287 3.43001C4.17787 3.73101 5.04085 5.38002 5.50885 5.38002C5.66424 5.34951 5.80128 5.2588 5.89008 5.12767C5.97887 4.99655 6.01221 4.83563 5.98285 4.68001C5.98285 4.28001 5.98285 2.70102 5.98285 2.50002C5.79262 2.05662 5.44394 1.70006 5.00488 1.50002C5.11422 1.35478 5.25369 1.23491 5.4137 1.14861C5.5737 1.06231 5.75046 1.01161 5.93188 1.00002C6.53188 0.975019 8.03688 0.975005 8.36188 1.02401C8.53631 1.05803 8.69396 1.15046 8.80884 1.28606C8.92372 1.42166 8.989 1.59235 8.9939 1.77001Z" fill="#2F2E20"/>
</svg>
