<svg width="9" height="14" viewBox="0 0 9 14" fill="none" xmlns="http://www.w3.org/2000/svg">
<path fill-rule="evenodd" clip-rule="evenodd" d="M4.50034 2.05571e-05C5.19179 0.00357667 5.86671 0.211852 6.43991 0.598592C7.01311 0.985333 7.45889 1.53321 7.72104 2.17306C7.98319 2.8129 8.04995 3.51606 7.91287 4.19381C7.7758 4.87155 7.44103 5.49351 6.95084 5.98119C6.46065 6.46888 5.83698 6.80045 5.15854 6.93404C4.4801 7.06764 3.77732 6.99726 3.13883 6.73183C2.50033 6.4664 1.95475 6.01782 1.57096 5.44265C1.18716 4.86747 0.982341 4.19149 0.982332 3.50002C0.983118 3.0391 1.07481 2.58286 1.25211 2.1574C1.4294 1.73194 1.68884 1.34561 2.0156 1.02053C2.34235 0.695445 2.72998 0.43798 3.15634 0.262868C3.58271 0.0877574 4.03942 -0.00155771 4.50034 2.05571e-05ZM4.50833 1.95601C4.80835 1.95898 5.10078 2.05065 5.34879 2.2195C5.59679 2.38836 5.78929 2.62685 5.90201 2.9049C6.01473 3.18295 6.04262 3.48812 5.98221 3.782C5.9218 4.07589 5.77573 4.34532 5.56247 4.55636C5.34921 4.76739 5.07828 4.91062 4.78378 4.96795C4.48928 5.02528 4.18442 4.99416 3.90756 4.87853C3.63071 4.7629 3.39424 4.56792 3.228 4.31817C3.06175 4.06841 2.97318 3.77505 2.97336 3.47503C2.97495 3.07021 3.13719 2.6826 3.42447 2.39739C3.71175 2.11217 4.10053 1.9527 4.50534 1.95403L4.50833 1.95601ZM4.50034 8.01601C5.17101 8.01108 5.83582 7.89031 6.46536 7.65902C6.81627 7.4319 7.19035 7.24283 7.58133 7.09502C7.80133 7.10302 8.16433 7.46801 8.10233 8.41201C8.06733 8.95101 7.08431 9.17302 6.73831 9.37902C6.51241 9.50189 6.26727 9.58543 6.01334 9.62603C6.01334 9.62603 6.86033 10.532 7.07633 10.755C7.51501 11.0746 7.84573 11.5205 8.02432 12.033C7.96726 12.2763 7.84345 12.4988 7.66678 12.6754C7.49011 12.8521 7.26757 12.9759 7.02432 13.033C6.48715 12.7575 6.01105 12.3766 5.62436 11.913C5.04136 11.357 4.50931 10.844 4.50931 10.844C4.50931 10.844 3.96332 11.33 3.39432 11.892C3.01662 12.3575 2.55201 12.745 2.02634 13.033C1.75597 12.9633 1.51169 12.8166 1.32315 12.6107C1.13462 12.4047 1.00994 12.1485 0.964327 11.873C1.29928 11.3166 1.71787 10.8151 2.20535 10.386C2.45444 10.1157 2.72172 9.8628 3.00534 9.62902C2.78202 9.59809 2.56598 9.52765 2.36734 9.42101C1.88634 9.15401 0.856333 8.87401 0.883333 8.37801C0.911333 7.86601 1.04236 7.07802 1.49936 7.07802C1.8898 7.22021 2.2647 7.4018 2.61832 7.62002C3.20854 7.8897 3.85151 8.02432 4.50034 8.01403V8.01601Z" fill="#2F2E20"/>
</svg>
