<svg width="19" height="19" viewBox="0 0 19 19" fill="none" xmlns="http://www.w3.org/2000/svg">
<path d="M16.5 0.5H2.5C1.4 0.5 0.5 1.4 0.5 2.5V16.5C0.5 17.6 1.4 18.5 2.5 18.5H16.5C17.6 18.5 18.5 17.6 18.5 16.5V2.5C18.5 1.4 17.6 0.5 16.5 0.5ZM10.53 4.56L11.59 3.5L13 4.91L14.41 3.5L15.47 4.56L14.06 5.97L15.47 7.38L14.41 8.44L13 7.04L11.59 8.45L10.53 7.39L11.94 5.98L10.53 4.56ZM3.75 5.22H8.75V6.72H3.75V5.22ZM9 13.5H7V15.5H5.5V13.5H3.5V12H5.5V10H7V12H9V13.5ZM15.5 14.75H10.5V13.25H15.5V14.75ZM15.5 12.25H10.5V10.75H15.5V12.25Z" fill="black"/>
</svg>
