<svg width="21" height="21" viewBox="0 0 21 21" fill="none" xmlns="http://www.w3.org/2000/svg">
<path fill-rule="evenodd" clip-rule="evenodd" d="M17.1665 3.83337H3.83317C2.9165 3.83337 2.17484 4.58337 2.17484 5.50004L2.1665 15.5C2.1665 16.4167 2.9165 17.1667 3.83317 17.1667H17.1665C18.0832 17.1667 18.8332 16.4167 18.8332 15.5V5.50004C18.8332 4.58337 18.0832 3.83337 17.1665 3.83337ZM17.1665 14.6667C17.1665 15.125 16.7915 15.5 16.3332 15.5H4.6665C4.20817 15.5 3.83317 15.125 3.83317 14.6667V7.16671L9.6165 10.7834C10.1582 11.125 10.8415 11.125 11.3832 10.7834L17.1665 7.16671V14.6667ZM3.83317 5.50004L10.4998 9.66671L17.1665 5.50004H3.83317Z" fill="white"/>
</svg>
