<svg width="31" height="31" viewBox="0 0 31 31" fill="none" xmlns="http://www.w3.org/2000/svg">
<path d="M15.4429 22.3583L14.8267 22.7859L15.4429 23.6737L16.059 22.7859L15.4429 22.3583ZM6.75714 17.1437V16.3937H6.26118L6.06701 16.8501L6.75714 17.1437ZM1.5 29.5L0.809867 29.2064L0.365842 30.25H1.5V29.5ZM24.2429 17.1437L24.933 16.8501L24.7388 16.3937H24.2429V17.1437ZM29.5 29.5V30.25H30.6342L30.1901 29.2064L29.5 29.5ZM9.15714 22.9743L8.80518 22.312L9.15714 22.9743ZM14.0522 20.3729L14.6654 19.941L14.0522 20.3729ZM11.8086 17.1437L12.4312 16.7255L11.8086 17.1437ZM18.4807 18.0194L19.0983 18.445L18.4807 18.0194ZM9.10714 8.74551C9.10714 5.06336 11.6615 2.25 15.4429 2.25V0.75C10.7664 0.75 7.60714 4.30324 7.60714 8.74551H9.10714ZM23.2786 8.74551C23.2786 4.30324 20.1193 0.75 15.4429 0.75V2.25C19.2242 2.25 21.7786 5.06336 21.7786 8.74551H23.2786ZM6.06701 16.8501L2.16033 26.0323L3.54059 26.6195L7.44728 17.4374L6.06701 16.8501ZM2.16033 26.0323L0.809867 29.2064L2.19013 29.7936L3.54059 26.6195L2.16033 26.0323ZM24.2429 16.3937H20.1286V17.8937H24.2429V16.3937ZM23.5527 17.4374L26.6395 24.6924L28.0198 24.1052L24.933 16.8501L23.5527 17.4374ZM26.6395 24.6924L28.8099 29.7936L30.1901 29.2064L28.0198 24.1052L26.6395 24.6924ZM29.5 28.75H17.9571V30.25H29.5V28.75ZM26.9711 23.74L17.5986 28.8413L18.3157 30.1587L27.6882 25.0575L26.9711 23.74ZM3.20242 26.9882L9.5091 23.6366L8.80518 22.312L2.4985 25.6636L3.20242 26.9882ZM17.9571 28.75H15.5571V30.25H17.9571V28.75ZM15.5571 28.75H1.5V30.25H15.5571V28.75ZM8.62168 23.4995L15.0217 30.0251L16.0926 28.9749L9.6926 22.4492L8.62168 23.4995ZM16.75 8.52834C16.75 9.23532 16.1705 9.81883 15.4429 9.81883V11.3188C16.9874 11.3188 18.25 10.0752 18.25 8.52834H16.75ZM15.4429 9.81883C14.7152 9.81883 14.1357 9.23532 14.1357 8.52834H12.6357C12.6357 10.0752 13.8983 11.3188 15.4429 11.3188V9.81883ZM14.1357 8.52834C14.1357 7.82136 14.7152 7.23785 15.4429 7.23785V5.73785C13.8983 5.73785 12.6357 6.98146 12.6357 8.52834H14.1357ZM15.4429 7.23785C16.1705 7.23785 16.75 7.82136 16.75 8.52834H18.25C18.25 6.98146 16.9874 5.73785 15.4429 5.73785V7.23785ZM9.5091 23.6366L14.4042 21.0352L13.7002 19.7106L8.80518 22.312L9.5091 23.6366ZM16.059 21.9307C15.5773 21.2366 15.1115 20.5744 14.6654 19.941L13.439 20.8048C13.885 21.438 14.3482 22.0965 14.8267 22.7859L16.059 21.9307ZM14.6654 19.941C13.8482 18.7808 13.0998 17.7209 12.4312 16.7255L11.186 17.5619C11.866 18.5742 12.6252 19.6493 13.439 20.8048L14.6654 19.941ZM12.4312 16.7255C10.3153 13.5758 9.10714 11.2195 9.10714 8.74551H7.60714C7.60714 11.7148 9.06655 14.4068 11.186 17.5619L12.4312 16.7255ZM11.8086 16.3937H6.75714V17.8937H11.8086V16.3937ZM20.1286 16.3937H19.0771V17.8937H20.1286V16.3937ZM19.6997 17.5619C21.8192 14.4068 23.2786 11.7148 23.2786 8.74551H21.7786C21.7786 11.2195 20.5704 13.5758 18.4546 16.7255L19.6997 17.5619ZM16.059 22.7859C17.1492 21.2151 18.1994 19.7495 19.0983 18.445L17.8631 17.5939C16.9499 18.9193 15.9511 20.3106 14.8267 21.9307L16.059 22.7859ZM19.0983 18.445C19.3046 18.1456 19.5053 17.8514 19.6997 17.5619L18.4546 16.7255C18.2641 17.0091 18.0668 17.2983 17.8631 17.5939L19.0983 18.445Z" fill="#2F2E20"/>
</svg>
