<svg width="425" height="237" viewBox="0 0 425 237" fill="none" xmlns="http://www.w3.org/2000/svg">
<path fill-rule="evenodd" clip-rule="evenodd" d="M414.253 72.9264V3.64332H411.896V74.2378L434.679 88.3828V141.949H437.036V87.0713L414.253 72.9264ZM-620.798 26.0395V176.627L-573.268 223.384V317.72L-528.881 357.012V468.461H-526.524V355.95L-570.911 316.658V222.396L-618.441 175.639V26.0395H-620.798ZM390.685 50.0072V132.519H393.041V50.0072H390.685ZM-635.332 53.9364H-637.689V90.3765L-662.043 114.344V188.605L-686.79 212.966V335.478L-716.643 359.053V416.99H-714.286V360.195L-684.433 336.62V213.954L-659.686 189.593V115.332L-635.332 91.3643V53.9364ZM-598.015 103.051V66.1167H-600.372V103.051H-598.015ZM-659.686 93.2279V75.5467H-662.043V93.2279H-659.686ZM138.501 90.0845H136.145V157.834L110.612 175.515V216.825L76.0448 244.722V376.126H78.4016V245.849L112.969 217.952V176.75L138.501 159.069V90.0845ZM-686.79 111.452V99.1216H-684.433V112.723L-714.286 132.369V178.097H-716.643V131.098L-686.79 111.452ZM414.253 233.105V107.373H411.896V233.105H414.253ZM338.048 107.373V154.523H340.405V107.373H338.048ZM112.969 128.59V108.159H110.612V128.59H112.969ZM-637.689 217.657V119.946H-635.332V218.692L-659.686 241.088V272.79H-662.043V240.053L-637.689 217.657ZM368.687 120.732H366.33V173.707L338.048 204.355V301.473H340.405V205.277L368.687 174.629V120.732ZM-424.393 237.82V146.271H-426.75V237.82H-424.393ZM-689.932 179.892V146.664H-687.575V181.018L-714.286 202.628V215.424H-716.643V201.503L-689.932 179.892ZM-43.369 191.653V160.023H-45.7259V192.832L-14.3012 216.407V261.002H-11.9444V215.228L-43.369 191.653ZM-570.911 187.92V160.416H-573.268V187.92H-570.911ZM169.926 240.344V166.703H167.569V241.584L224.134 280.482V357.057L273.628 395.563V475.141H275.984V394.41L226.491 355.904V279.242L169.926 240.344ZM80.3657 207.566V166.703H78.0088V207.566H80.3657ZM393.041 167.096H390.685V183.946L366.33 212.236V315.814L338.048 337.031V380.056H340.405V338.21L368.687 316.993V213.111L393.041 184.822V167.096ZM-63.7951 185.563H-66.1519V284.26L-92.863 298.405V374.626L-120.752 389.164V473.176H-118.396V390.593L-90.5061 376.055V299.825L-63.7951 285.68V185.563ZM-443.641 240.546V185.956H-441.284V241.381L-478.208 286.96V326.619H-480.565V286.124L-443.641 240.546ZM312.123 193.814H309.766V236.44L273.628 263.158V288.899H275.984V264.347L312.123 237.629V193.814ZM275.984 220.532V198.922H273.628V220.532H275.984ZM390.685 212.674V246.223L411.896 264.297V301.473H414.253V263.208L393.041 245.134V212.674H390.685ZM222.562 246.857V212.674H220.206V246.857H222.562ZM-616.86 215.34L-618.451 217.08L-600.372 233.625V283.006H-598.015V232.586L-616.86 215.34ZM437.036 333.692V217.389H434.679V333.692H437.036ZM-478.208 242.535V220.139H-480.565V242.535H-478.208ZM141.644 225.64V318.555L167.176 338.201V424.928L193.887 452.825V475.141H196.244V451.878L169.533 423.981V337.04L144.001 317.395V225.64H141.644ZM-45.7259 225.64V379.75L-28.0495 397.825V481.428H-25.6927V396.863L-43.369 378.789V225.64H-45.7259ZM-402.396 235.856V302.176L-358.009 326.144V405.093L-308.908 433.776V481.428H-306.551V432.422L-355.652 403.74V324.737L-400.039 300.769V235.856H-402.396ZM-91.6845 270.039V243.321H-94.0414V270.039H-91.6845ZM-716.643 243.321V336.049H-714.286V243.321H-716.643ZM112.969 337.07V248.036H110.612V338.172L141.644 364.104V475.141H144.001V363.002L112.969 337.07ZM-554.02 303.326V250.001H-556.377V304.335L-530.48 329.044L-528.853 327.338L-554.02 303.326ZM-637.689 354.359V252.358H-635.332V355.459L-659.686 375.89V431.337L-691.111 454.519V481.428H-693.467V453.328L-662.043 430.146V374.791L-637.689 354.359ZM-424.393 260.109L-460.532 310.128V385.163H-458.175V310.891L-426.75 267.396V380.361L-460.532 414.938V481.428H-458.175V415.898L-424.393 381.322V260.109ZM28.5149 327.405V265.324H26.1581V327.405H28.5149ZM312.123 347.837V273.969H309.766V347.837H312.123ZM-616.477 396.165V275.54H-618.834V396.165H-616.477ZM169.053 278.913L167.657 280.812L193.887 300.104V411.489H196.244V298.912L169.053 278.913ZM250.059 339.585V281.827H247.702V339.585H250.059ZM-526.524 302.651V281.827H-528.881V302.651H-526.524ZM-11.9444 332.483V284.97H-14.3012V333.328L23.8012 379.692V475.141H26.1581V378.847L-11.9444 332.483ZM393.041 288.899H390.685V337.043L366.33 355.903V395.772H368.687V357.059L393.041 338.199V288.899ZM-337.583 316.796V292.828H-339.94V316.796H-337.583ZM-662.043 343.752V306.581H-659.686V344.849L-684.433 365.674V414.4L-714.286 439.154V481.428H-716.643V438.046L-686.79 413.292V364.576L-662.043 343.752ZM-499.027 375.341V312.867H-501.384V375.341H-499.027ZM-66.1519 320.333V441.35H-63.7951V320.333H-66.1519ZM-200.885 320.333V370.426L-168.675 394.787V450.108L-145.892 471.718V481.428H-143.535V470.705L-166.318 449.095V393.614L-198.529 369.253V320.333H-200.885ZM-598.015 320.725H-600.372V403.003L-637.689 428.15V481.428H-635.332V429.404L-598.015 404.258V320.725ZM275.984 349.629V321.118H273.628V350.759L309.766 379.834V442.136H312.123V378.705L275.984 349.629ZM-402.396 327.352V452.484L-382.366 470.516L-380.789 468.764L-400.039 451.434V331.387L-380.792 342.239V420.919H-378.435V340.861L-402.396 327.352ZM414.253 355.862V328.977H411.896V357.1L434.679 372.816V475.141H437.036V371.578L414.253 355.862ZM-114.86 362.767V339.585H-117.217V362.767H-114.86ZM-217.383 339.585H-219.74V382.641L-239.381 398.751V456.281H-237.024V399.866L-217.383 383.757V339.585ZM49.7266 349.015V401.666H52.0835V349.015H49.7266ZM-339.94 349.408V390.527L-277.876 429.819V475.141H-275.519V428.521L-337.583 389.229V349.408H-339.94ZM-237.024 372.59V353.337H-239.381V372.59H-237.024ZM-20.8593 357.691L-22.6699 359.2L-3.30258 382.447V481.428H-0.945709V381.593L-20.8593 357.691ZM-317.157 374.678V358.445H-319.514V376.003L-260.199 412.151V481.428H-257.843V410.827L-317.157 374.678ZM-480.565 387.849V358.445H-478.208V388.764L-499.027 411.553V481.428H-501.384V410.638L-480.565 387.849ZM112.969 367.482H110.612V437.914L76.0448 457.56V483.392H78.4016V458.932L112.969 439.286V367.482ZM-570.911 466.804V367.482H-573.268V467.761L-559.186 482.249L-557.496 480.606L-570.911 466.804ZM390.685 368.268V439.457L411.896 462.246V475.141H414.253V461.318L393.041 438.529V368.268H390.685ZM-635.332 411.096V378.091H-637.689V411.096H-635.332ZM414.253 429.563V397.344H411.896V429.563H414.253ZM-198.529 461.301V397.344H-200.885V462.263L-181.301 482.253L-179.618 480.603L-198.529 461.301ZM222.562 475.141V399.308H220.206V475.141H222.562ZM-550.878 400.094V442.136H-548.521V400.094H-550.878ZM78.4016 400.487H76.0448V432.749L49.7266 445.322V475.141H52.0835V446.809L78.4016 434.235V400.487ZM-90.5061 481.428V401.666H-92.863V481.428H-90.5061ZM-43.369 481.428V407.952H-45.7259V481.428H-43.369ZM-143.535 446.065V416.204H-145.892V446.065H-143.535ZM-478.208 481.428V416.99H-480.565V481.428H-478.208ZM-219.74 460.066V417.382H-217.383V461.14L-241.75 482.317L-243.296 480.538L-219.74 460.066ZM368.687 475.141V417.775H366.33V475.141H368.687ZM-424.393 481.428V424.848H-426.75V481.428H-424.393ZM340.405 425.241H338.048V458.9L310.155 484.089L311.734 485.839L340.405 459.948V425.241ZM250.059 475.141V428.384H247.702V475.141H250.059ZM-598.015 481.428V428.777H-600.372V481.428H-598.015ZM-356.24 432.079L-357.421 434.119L-335.619 446.745V481.428H-333.262V445.386L-356.24 432.079ZM-355.652 481.428V460.603H-358.009V481.428H-355.652ZM-659.686 481.428V461.389H-662.043V481.428H-659.686ZM-392.158 480.572L-407.085 466.427L-408.706 468.138L-393.779 482.283L-392.158 480.572ZM-63.7951 481.428V468.854H-66.1519V481.428H-63.7951ZM169.533 483.392V469.64H167.176V483.392H169.533ZM112.969 483.392V469.64H110.612V483.392H112.969Z" fill="#DFD626"/>
<path d="M409.932 3.64332C409.932 5.37932 411.339 6.78663 413.075 6.78663C414.81 6.78663 416.217 5.37932 416.217 3.64332C416.217 1.90731 414.81 0.5 413.075 0.5C411.339 0.5 409.932 1.90731 409.932 3.64332Z" fill="#DFD626"/>
<path d="M432.715 141.163C432.715 142.899 434.122 144.307 435.858 144.307C437.593 144.307 439 142.899 439 141.163C439 139.427 437.593 138.02 435.858 138.02C434.122 138.02 432.715 139.427 432.715 141.163Z" fill="#DFD626"/>
<path d="M388.72 132.519C388.72 134.255 390.127 135.663 391.863 135.663C393.598 135.663 395.005 134.255 395.005 132.519C395.005 130.783 393.598 129.376 391.863 129.376C390.127 129.376 388.72 130.783 388.72 132.519Z" fill="#DFD626"/>
<path d="M388.72 49.2214C388.72 50.9574 390.127 52.3647 391.863 52.3647C393.598 52.3647 395.005 50.9574 395.005 49.2214C395.005 47.4854 393.598 46.0781 391.863 46.0781C390.127 46.0781 388.72 47.4854 388.72 49.2214Z" fill="#DFD626"/>
<path d="M364.366 120.732C364.366 122.468 365.773 123.875 367.509 123.875C369.244 123.875 370.651 122.468 370.651 120.732C370.651 118.996 369.244 117.589 367.509 117.589C365.773 117.589 364.366 118.996 364.366 120.732Z" fill="#DFD626"/>
<path d="M336.084 108.159C336.084 109.895 337.491 111.302 339.227 111.302C340.962 111.302 342.369 109.895 342.369 108.159C342.369 106.423 340.962 105.015 339.227 105.015C337.491 105.015 336.084 106.423 336.084 108.159Z" fill="#DFD626"/>
<path d="M409.932 106.587C409.932 108.323 411.339 109.73 413.075 109.73C414.81 109.73 416.217 108.323 416.217 106.587C416.217 104.851 414.81 103.444 413.075 103.444C411.339 103.444 409.932 104.851 409.932 106.587Z" fill="#DFD626"/>
<path d="M388.72 167.096C388.72 168.832 390.127 170.239 391.863 170.239C393.598 170.239 395.005 168.832 395.005 167.096C395.005 165.36 393.598 163.952 391.863 163.952C390.127 163.952 388.72 165.36 388.72 167.096Z" fill="#DFD626"/>
<path d="M336.084 300.687C336.084 302.423 337.491 303.83 339.227 303.83C340.962 303.83 342.369 302.423 342.369 300.687C342.369 298.951 340.962 297.543 339.227 297.543C337.491 297.543 336.084 298.951 336.084 300.687Z" fill="#DFD626"/>
<path d="M336.084 378.484C336.084 380.22 337.491 381.627 339.227 381.627C340.962 381.627 342.369 380.22 342.369 378.484C342.369 376.748 340.962 375.341 339.227 375.341C337.491 375.341 336.084 376.748 336.084 378.484Z" fill="#DFD626"/>
<path d="M336.084 424.848C336.084 426.584 337.491 427.991 339.227 427.991C340.962 427.991 342.369 426.584 342.369 424.848C342.369 423.112 340.962 421.704 339.227 421.704C337.491 421.704 336.084 423.112 336.084 424.848Z" fill="#DFD626"/>
<path d="M307.802 484.571C307.802 486.307 309.209 487.714 310.944 487.714C312.68 487.714 314.087 486.307 314.087 484.571C314.087 482.835 312.68 481.428 310.944 481.428C309.209 481.428 307.802 482.835 307.802 484.571Z" fill="#DFD626"/>
<path d="M307.802 442.136C307.802 443.872 309.209 445.279 310.944 445.279C312.68 445.279 314.087 443.872 314.087 442.136C314.087 440.4 312.68 438.993 310.944 438.993C309.209 438.993 307.802 440.4 307.802 442.136Z" fill="#DFD626"/>
<path d="M307.802 348.622C307.802 350.358 309.209 351.766 310.944 351.766C312.68 351.766 314.087 350.358 314.087 348.622C314.087 346.886 312.68 345.479 310.944 345.479C309.209 345.479 307.802 346.886 307.802 348.622Z" fill="#DFD626"/>
<path d="M307.802 273.969C307.802 275.705 309.209 277.112 310.944 277.112C312.68 277.112 314.087 275.705 314.087 273.969C314.087 272.233 312.68 270.825 310.944 270.825C309.209 270.825 307.802 272.233 307.802 273.969Z" fill="#DFD626"/>
<path d="M307.802 193.814C307.802 195.55 309.209 196.957 310.944 196.957C312.68 196.957 314.087 195.55 314.087 193.814C314.087 192.078 312.68 190.671 310.944 190.671C309.209 190.671 307.802 192.078 307.802 193.814Z" fill="#DFD626"/>
<path d="M271.663 198.529C271.663 200.265 273.07 201.672 274.806 201.672C276.542 201.672 277.948 200.265 277.948 198.529C277.948 196.793 276.542 195.386 274.806 195.386C273.07 195.386 271.663 196.793 271.663 198.529Z" fill="#DFD626"/>
<path d="M271.663 220.532C271.663 222.268 273.07 223.676 274.806 223.676C276.542 223.676 277.948 222.268 277.948 220.532C277.948 218.796 276.542 217.389 274.806 217.389C273.07 217.389 271.663 218.796 271.663 220.532Z" fill="#DFD626"/>
<path d="M271.663 288.899C271.663 290.635 273.07 292.043 274.806 292.043C276.542 292.043 277.948 290.635 277.948 288.899C277.948 287.163 276.542 285.756 274.806 285.756C273.07 285.756 271.663 287.163 271.663 288.899Z" fill="#DFD626"/>
<path d="M271.663 320.333C271.663 322.069 273.07 323.476 274.806 323.476C276.542 323.476 277.948 322.069 277.948 320.333C277.948 318.597 276.542 317.189 274.806 317.189C273.07 317.189 271.663 318.597 271.663 320.333Z" fill="#DFD626"/>
<path d="M271.663 475.141C271.663 476.877 273.07 478.284 274.806 478.284C276.542 478.284 277.948 476.877 277.948 475.141C277.948 473.405 276.542 471.998 274.806 471.998C273.07 471.998 271.663 473.405 271.663 475.141Z" fill="#DFD626"/>
<path d="M245.738 427.991C245.738 429.727 247.145 431.134 248.881 431.134C250.616 431.134 252.023 429.727 252.023 427.991C252.023 426.255 250.616 424.848 248.881 424.848C247.145 424.848 245.738 426.255 245.738 427.991Z" fill="#DFD626"/>
<path d="M218.242 399.701C218.242 401.437 219.648 402.845 221.384 402.845C223.12 402.845 224.526 401.437 224.526 399.701C224.526 397.965 223.12 396.558 221.384 396.558C219.648 396.558 218.242 397.965 218.242 399.701Z" fill="#DFD626"/>
<path d="M218.242 475.141C218.242 476.877 219.648 478.284 221.384 478.284C223.12 478.284 224.526 476.877 224.526 475.141C224.526 473.405 223.12 471.998 221.384 471.998C219.648 471.998 218.242 473.405 218.242 475.141Z" fill="#DFD626"/>
<path d="M191.531 475.141C191.531 476.877 192.937 478.284 194.673 478.284C196.409 478.284 197.815 476.877 197.815 475.141C197.815 473.405 196.409 471.998 194.673 471.998C192.937 471.998 191.531 473.405 191.531 475.141Z" fill="#DFD626"/>
<path d="M165.605 468.854C165.605 470.59 167.012 471.998 168.748 471.998C170.483 471.998 171.89 470.59 171.89 468.854C171.89 467.118 170.483 465.711 168.748 465.711C167.012 465.711 165.605 467.118 165.605 468.854Z" fill="#DFD626"/>
<path d="M165.605 485.357C165.605 487.093 167.012 488.5 168.748 488.5C170.483 488.5 171.89 487.093 171.89 485.357C171.89 483.621 170.483 482.213 168.748 482.213C167.012 482.213 165.605 483.621 165.605 485.357Z" fill="#DFD626"/>
<path d="M139.68 475.141C139.68 476.877 141.087 478.284 142.822 478.284C144.558 478.284 145.965 476.877 145.965 475.141C145.965 473.405 144.558 471.998 142.822 471.998C141.087 471.998 139.68 473.405 139.68 475.141Z" fill="#DFD626"/>
<path d="M108.255 468.854C108.255 470.59 109.662 471.998 111.398 471.998C113.133 471.998 114.54 470.59 114.54 468.854C114.54 467.118 113.133 465.711 111.398 465.711C109.662 465.711 108.255 467.118 108.255 468.854Z" fill="#DFD626"/>
<path d="M108.255 483.785C108.255 485.521 109.662 486.928 111.398 486.928C113.133 486.928 114.54 485.521 114.54 483.785C114.54 482.049 113.133 480.642 111.398 480.642C109.662 480.642 108.255 482.049 108.255 483.785Z" fill="#DFD626"/>
<path d="M245.738 475.141C245.738 476.877 247.145 478.284 248.881 478.284C250.616 478.284 252.023 476.877 252.023 475.141C252.023 473.405 250.616 471.998 248.881 471.998C247.145 471.998 245.738 473.405 245.738 475.141Z" fill="#DFD626"/>
<path d="M245.738 339.192C245.738 340.928 247.145 342.336 248.881 342.336C250.616 342.336 252.023 340.928 252.023 339.192C252.023 337.456 250.616 336.049 248.881 336.049C247.145 336.049 245.738 337.456 245.738 339.192Z" fill="#DFD626"/>
<path d="M245.738 282.613C245.738 284.349 247.145 285.756 248.881 285.756C250.616 285.756 252.023 284.349 252.023 282.613C252.023 280.877 250.616 279.469 248.881 279.469C247.145 279.469 245.738 280.877 245.738 282.613Z" fill="#DFD626"/>
<path d="M218.242 247.25C218.242 248.986 219.648 250.394 221.384 250.394C223.12 250.394 224.526 248.986 224.526 247.25C224.526 245.514 223.12 244.107 221.384 244.107C219.648 244.107 218.242 245.514 218.242 247.25Z" fill="#DFD626"/>
<path d="M167.176 281.041C167.176 282.777 168.583 284.184 170.319 284.184C172.054 284.184 173.461 282.777 173.461 281.041C173.461 279.305 172.054 277.898 170.319 277.898C168.583 277.898 167.176 279.305 167.176 281.041Z" fill="#DFD626"/>
<path d="M218.242 211.888C218.242 213.624 219.648 215.031 221.384 215.031C223.12 215.031 224.526 213.624 224.526 211.888C224.526 210.152 223.12 208.745 221.384 208.745C219.648 208.745 218.242 210.152 218.242 211.888Z" fill="#DFD626"/>
<path d="M165.605 166.31C165.605 168.046 167.012 169.453 168.748 169.453C170.483 169.453 171.89 168.046 171.89 166.31C171.89 164.574 170.483 163.167 168.748 163.167C167.012 163.167 165.605 164.574 165.605 166.31Z" fill="#DFD626"/>
<path d="M139.68 225.247C139.68 226.983 141.087 228.391 142.822 228.391C144.558 228.391 145.965 226.983 145.965 225.247C145.965 223.511 144.558 222.104 142.822 222.104C141.087 222.104 139.68 223.511 139.68 225.247Z" fill="#DFD626"/>
<path d="M108.255 247.25C108.255 248.986 109.662 250.394 111.398 250.394C113.133 250.394 114.54 248.986 114.54 247.25C114.54 245.514 113.133 244.107 111.398 244.107C109.662 244.107 108.255 245.514 108.255 247.25Z" fill="#DFD626"/>
<path d="M108.255 129.376C108.255 131.112 109.662 132.519 111.398 132.519C113.133 132.519 114.54 131.112 114.54 129.376C114.54 127.64 113.133 126.233 111.398 126.233C109.662 126.233 108.255 127.64 108.255 129.376Z" fill="#DFD626"/>
<path d="M76.0448 166.31C76.0448 168.046 77.4517 169.453 79.1873 169.453C80.9228 169.453 82.3297 168.046 82.3297 166.31C82.3297 164.574 80.9228 163.167 79.1873 163.167C77.4517 163.167 76.0448 164.574 76.0448 166.31Z" fill="#DFD626"/>
<path d="M76.0448 207.959C76.0448 209.695 77.4517 211.102 79.1873 211.102C80.9228 211.102 82.3297 209.695 82.3297 207.959C82.3297 206.223 80.9228 204.816 79.1873 204.816C77.4517 204.816 76.0448 206.223 76.0448 207.959Z" fill="#DFD626"/>
<path d="M-16.6581 259.824C-16.6581 261.56 -15.2511 262.967 -13.5156 262.967C-11.7801 262.967 -10.3731 261.56 -10.3731 259.824C-10.3731 258.088 -11.7801 256.68 -13.5156 256.68C-15.2511 256.68 -16.6581 258.088 -16.6581 259.824Z" fill="#DFD626"/>
<path d="M-16.6581 285.756C-16.6581 287.492 -15.2511 288.899 -13.5156 288.899C-11.7801 288.899 -10.3731 287.492 -10.3731 285.756C-10.3731 284.02 -11.7801 282.613 -13.5156 282.613C-15.2511 282.613 -16.6581 284.02 -16.6581 285.756Z" fill="#DFD626"/>
<path d="M-25.2999 358.838C-25.2999 360.574 -23.8929 361.981 -22.1574 361.981C-20.4218 361.981 -19.0149 360.574 -19.0149 358.838C-19.0149 357.102 -20.4218 355.695 -22.1574 355.695C-23.8929 355.695 -25.2999 357.102 -25.2999 358.838Z" fill="#DFD626"/>
<path d="M21.8372 475.141C21.8372 476.877 23.2441 478.284 24.9796 478.284C26.7152 478.284 28.1221 476.877 28.1221 475.141C28.1221 473.405 26.7152 471.998 24.9796 471.998C23.2441 471.998 21.8372 473.405 21.8372 475.141Z" fill="#DFD626"/>
<path d="M-5.65942 481.428C-5.65942 483.164 -4.25247 484.571 -2.51694 484.571C-0.781403 484.571 0.625519 483.164 0.625519 481.428C0.625519 479.692 -0.781403 478.284 -2.51694 478.284C-4.25247 478.284 -5.65942 479.692 -5.65942 481.428Z" fill="#DFD626"/>
<path d="M-30.0135 481.428C-30.0135 483.164 -28.6066 484.571 -26.8711 484.571C-25.1356 484.571 -23.7286 483.164 -23.7286 481.428C-23.7286 479.692 -25.1356 478.284 -26.8711 478.284C-28.6066 478.284 -30.0135 479.692 -30.0135 481.428Z" fill="#DFD626"/>
<path d="M-68.5088 481.428C-68.5088 483.164 -67.1019 484.571 -65.3663 484.571C-63.6308 484.571 -62.2239 483.164 -62.2239 481.428C-62.2239 479.692 -63.6308 478.284 -65.3663 478.284C-67.1019 478.284 -68.5088 479.692 -68.5088 481.428Z" fill="#DFD626"/>
<path d="M-68.5088 468.854C-68.5088 470.59 -67.1019 471.998 -65.3663 471.998C-63.6308 471.998 -62.2239 470.59 -62.2239 468.854C-62.2239 467.118 -63.6308 465.711 -65.3663 465.711C-67.1019 465.711 -68.5088 467.118 -68.5088 468.854Z" fill="#DFD626"/>
<path d="M-68.5088 442.136C-68.5088 443.872 -67.1019 445.279 -65.3663 445.279C-63.6308 445.279 -62.2239 443.872 -62.2239 442.136C-62.2239 440.4 -63.6308 438.993 -65.3663 438.993C-67.1019 438.993 -68.5088 440.4 -68.5088 442.136Z" fill="#DFD626"/>
<path d="M-47.2971 407.56C-47.2971 409.296 -45.8902 410.703 -44.1547 410.703C-42.4191 410.703 -41.0122 409.296 -41.0122 407.56C-41.0122 405.824 -42.4191 404.416 -44.1547 404.416C-45.8902 404.416 -47.2971 405.824 -47.2971 407.56Z" fill="#DFD626"/>
<path d="M-94.4342 402.845C-94.4342 404.581 -93.0272 405.988 -91.2917 405.988C-89.5562 405.988 -88.1492 404.581 -88.1492 402.845C-88.1492 401.109 -89.5562 399.701 -91.2917 399.701C-93.0272 399.701 -94.4342 401.109 -94.4342 402.845Z" fill="#DFD626"/>
<path d="M-118.788 339.192C-118.788 340.928 -117.381 342.336 -115.646 342.336C-113.91 342.336 -112.503 340.928 -112.503 339.192C-112.503 337.456 -113.91 336.049 -115.646 336.049C-117.381 336.049 -118.788 337.456 -118.788 339.192Z" fill="#DFD626"/>
<path d="M-118.788 363.553C-118.788 365.289 -117.381 366.696 -115.646 366.696C-113.91 366.696 -112.503 365.289 -112.503 363.553C-112.503 361.817 -113.91 360.41 -115.646 360.41C-117.381 360.41 -118.788 361.817 -118.788 363.553Z" fill="#DFD626"/>
<path d="M-147.856 416.99C-147.856 418.726 -146.449 420.133 -144.714 420.133C-142.978 420.133 -141.571 418.726 -141.571 416.99C-141.571 415.254 -142.978 413.846 -144.714 413.846C-146.449 413.846 -147.856 415.254 -147.856 416.99Z" fill="#DFD626"/>
<path d="M-202.849 320.333C-202.849 322.069 -201.442 323.476 -199.707 323.476C-197.971 323.476 -196.564 322.069 -196.564 320.333C-196.564 318.597 -197.971 317.189 -199.707 317.189C-201.442 317.189 -202.849 318.597 -202.849 320.333Z" fill="#DFD626"/>
<path d="M-221.704 339.192C-221.704 340.928 -220.297 342.336 -218.562 342.336C-216.826 342.336 -215.419 340.928 -215.419 339.192C-215.419 337.456 -216.826 336.049 -218.562 336.049C-220.297 336.049 -221.704 337.456 -221.704 339.192Z" fill="#DFD626"/>
<path d="M-202.849 396.558C-202.849 398.294 -201.442 399.701 -199.707 399.701C-197.971 399.701 -196.564 398.294 -196.564 396.558C-196.564 394.822 -197.971 393.415 -199.707 393.415C-201.442 393.415 -202.849 394.822 -202.849 396.558Z" fill="#DFD626"/>
<path d="M-147.856 481.428C-147.856 483.164 -146.449 484.571 -144.714 484.571C-142.978 484.571 -141.571 483.164 -141.571 481.428C-141.571 479.692 -142.978 478.284 -144.714 478.284C-146.449 478.284 -147.856 479.692 -147.856 481.428Z" fill="#DFD626"/>
<path d="M-183.995 481.428C-183.995 483.164 -182.588 484.571 -180.852 484.571C-179.117 484.571 -177.71 483.164 -177.71 481.428C-177.71 479.692 -179.117 478.284 -180.852 478.284C-182.588 478.284 -183.995 479.692 -183.995 481.428Z" fill="#DFD626"/>
<path d="M-245.273 481.428C-245.273 483.164 -243.866 484.571 -242.13 484.571C-240.395 484.571 -238.988 483.164 -238.988 481.428C-238.988 479.692 -240.395 478.284 -242.13 478.284C-243.866 478.284 -245.273 479.692 -245.273 481.428Z" fill="#DFD626"/>
<path d="M-221.704 416.99C-221.704 418.726 -220.297 420.133 -218.562 420.133C-216.826 420.133 -215.419 418.726 -215.419 416.99C-215.419 415.254 -216.826 413.846 -218.562 413.846C-220.297 413.846 -221.704 415.254 -221.704 416.99Z" fill="#DFD626"/>
<path d="M-241.345 352.552C-241.345 354.288 -239.938 355.695 -238.202 355.695C-236.467 355.695 -235.06 354.288 -235.06 352.552C-235.06 350.816 -236.467 349.408 -238.202 349.408C-239.938 349.408 -241.345 350.816 -241.345 352.552Z" fill="#DFD626"/>
<path d="M-241.345 372.983C-241.345 374.719 -239.938 376.126 -238.202 376.126C-236.467 376.126 -235.06 374.719 -235.06 372.983C-235.06 371.247 -236.467 369.84 -238.202 369.84C-239.938 369.84 -241.345 371.247 -241.345 372.983Z" fill="#DFD626"/>
<path d="M-321.478 358.838C-321.478 360.574 -320.071 361.981 -318.335 361.981C-316.6 361.981 -315.193 360.574 -315.193 358.838C-315.193 357.102 -316.6 355.695 -318.335 355.695C-320.071 355.695 -321.478 357.102 -321.478 358.838Z" fill="#DFD626"/>
<path d="M-341.904 291.257C-341.904 292.993 -340.497 294.4 -338.761 294.4C-337.026 294.4 -335.619 292.993 -335.619 291.257C-335.619 289.521 -337.026 288.114 -338.761 288.114C-340.497 288.114 -341.904 289.521 -341.904 291.257Z" fill="#DFD626"/>
<path d="M-403.967 235.463C-403.967 237.199 -402.56 238.606 -400.825 238.606C-399.089 238.606 -397.682 237.199 -397.682 235.463C-397.682 233.727 -399.089 232.32 -400.825 232.32C-402.56 232.32 -403.967 233.727 -403.967 235.463Z" fill="#DFD626"/>
<path d="M-429.107 145.878C-429.107 147.614 -427.7 149.022 -425.965 149.022C-424.229 149.022 -422.822 147.614 -422.822 145.878C-422.822 144.142 -424.229 142.735 -425.965 142.735C-427.7 142.735 -429.107 144.142 -429.107 145.878Z" fill="#DFD626"/>
<path d="M-429.107 238.606C-429.107 240.342 -427.7 241.75 -425.965 241.75C-424.229 241.75 -422.822 240.342 -422.822 238.606C-422.822 236.87 -424.229 235.463 -425.965 235.463C-427.7 235.463 -429.107 236.87 -429.107 238.606Z" fill="#DFD626"/>
<path d="M-445.605 185.17C-445.605 186.906 -444.198 188.313 -442.463 188.313C-440.727 188.313 -439.32 186.906 -439.32 185.17C-439.32 183.434 -440.727 182.027 -442.463 182.027C-444.198 182.027 -445.605 183.434 -445.605 185.17Z" fill="#DFD626"/>
<path d="M-482.529 220.532C-482.529 222.268 -481.122 223.676 -479.387 223.676C-477.651 223.676 -476.244 222.268 -476.244 220.532C-476.244 218.796 -477.651 217.389 -479.387 217.389C-481.122 217.389 -482.529 218.796 -482.529 220.532Z" fill="#DFD626"/>
<path d="M-482.529 241.75C-482.529 243.486 -481.122 244.893 -479.387 244.893C-477.651 244.893 -476.244 243.486 -476.244 241.75C-476.244 240.014 -477.651 238.606 -479.387 238.606C-481.122 238.606 -482.529 240.014 -482.529 241.75Z" fill="#DFD626"/>
<path d="M-341.904 317.189C-341.904 318.925 -340.497 320.333 -338.761 320.333C-337.026 320.333 -335.619 318.925 -335.619 317.189C-335.619 315.453 -337.026 314.046 -338.761 314.046C-340.497 314.046 -341.904 315.453 -341.904 317.189Z" fill="#DFD626"/>
<path d="M-341.904 349.408C-341.904 351.144 -340.497 352.552 -338.761 352.552C-337.026 352.552 -335.619 351.144 -335.619 349.408C-335.619 347.672 -337.026 346.265 -338.761 346.265C-340.497 346.265 -341.904 347.672 -341.904 349.408Z" fill="#DFD626"/>
<path d="M-385.113 468.854C-385.113 470.59 -383.706 471.998 -381.97 471.998C-380.235 471.998 -378.828 470.59 -378.828 468.854C-378.828 467.118 -380.235 465.711 -381.97 465.711C-383.706 465.711 -385.113 467.118 -385.113 468.854Z" fill="#DFD626"/>
<path d="M-396.111 482.213C-396.111 483.949 -394.704 485.357 -392.969 485.357C-391.233 485.357 -389.826 483.949 -389.826 482.213C-389.826 480.477 -391.233 479.07 -392.969 479.07C-394.704 479.07 -396.111 480.477 -396.111 482.213Z" fill="#DFD626"/>
<path d="M-411.824 466.497C-411.824 468.233 -410.417 469.64 -408.681 469.64C-406.946 469.64 -405.539 468.233 -405.539 466.497C-405.539 464.761 -406.946 463.353 -408.681 463.353C-410.417 463.353 -411.824 464.761 -411.824 466.497Z" fill="#DFD626"/>
<path d="M-429.107 424.062C-429.107 425.798 -427.7 427.205 -425.965 427.205C-424.229 427.205 -422.822 425.798 -422.822 424.062C-422.822 422.326 -424.229 420.919 -425.965 420.919C-427.7 420.919 -429.107 422.326 -429.107 424.062Z" fill="#DFD626"/>
<path d="M-482.529 417.775C-482.529 419.511 -481.122 420.919 -479.387 420.919C-477.651 420.919 -476.244 419.511 -476.244 417.775C-476.244 416.039 -477.651 414.632 -479.387 414.632C-481.122 414.632 -482.529 416.039 -482.529 417.775Z" fill="#DFD626"/>
<path d="M-462.889 385.556C-462.889 387.292 -461.482 388.7 -459.746 388.7C-458.011 388.7 -456.604 387.292 -456.604 385.556C-456.604 383.82 -458.011 382.413 -459.746 382.413C-461.482 382.413 -462.889 383.82 -462.889 385.556Z" fill="#DFD626"/>
<path d="M-482.529 358.838C-482.529 360.574 -481.122 361.981 -479.387 361.981C-477.651 361.981 -476.244 360.574 -476.244 358.838C-476.244 357.102 -477.651 355.695 -479.387 355.695C-481.122 355.695 -482.529 357.102 -482.529 358.838Z" fill="#DFD626"/>
<path d="M-482.529 326.619C-482.529 328.355 -481.122 329.762 -479.387 329.762C-477.651 329.762 -476.244 328.355 -476.244 326.619C-476.244 324.883 -477.651 323.476 -479.387 323.476C-481.122 323.476 -482.529 324.883 -482.529 326.619Z" fill="#DFD626"/>
<path d="M-503.741 314.046C-503.741 315.782 -502.334 317.189 -500.598 317.189C-498.863 317.189 -497.456 315.782 -497.456 314.046C-497.456 312.31 -498.863 310.903 -500.598 310.903C-502.334 310.903 -503.741 312.31 -503.741 314.046Z" fill="#DFD626"/>
<path d="M-530.452 281.827C-530.452 283.563 -529.045 284.97 -527.309 284.97C-525.574 284.97 -524.167 283.563 -524.167 281.827C-524.167 280.091 -525.574 278.684 -527.309 278.684C-529.045 278.684 -530.452 280.091 -530.452 281.827Z" fill="#DFD626"/>
<path d="M-530.452 303.044C-530.452 304.78 -529.045 306.188 -527.309 306.188C-525.574 306.188 -524.167 304.78 -524.167 303.044C-524.167 301.308 -525.574 299.901 -527.309 299.901C-529.045 299.901 -530.452 301.308 -530.452 303.044Z" fill="#DFD626"/>
<path d="M-533.594 327.405C-533.594 329.141 -532.187 330.548 -530.452 330.548C-528.716 330.548 -527.309 329.141 -527.309 327.405C-527.309 325.669 -528.716 324.262 -530.452 324.262C-532.187 324.262 -533.594 325.669 -533.594 327.405Z" fill="#DFD626"/>
<path d="M-558.734 248.822C-558.734 250.558 -557.327 251.965 -555.592 251.965C-553.856 251.965 -552.449 250.558 -552.449 248.822C-552.449 247.086 -553.856 245.679 -555.592 245.679C-557.327 245.679 -558.734 247.086 -558.734 248.822Z" fill="#DFD626"/>
<path d="M-621.583 215.817C-621.583 217.553 -620.177 218.961 -618.441 218.961C-616.705 218.961 -615.298 217.553 -615.298 215.817C-615.298 214.081 -616.705 212.674 -618.441 212.674C-620.177 212.674 -621.583 214.081 -621.583 215.817Z" fill="#DFD626"/>
<path d="M-601.943 283.399C-601.943 285.135 -600.536 286.542 -598.801 286.542C-597.065 286.542 -595.658 285.135 -595.658 283.399C-595.658 281.663 -597.065 280.255 -598.801 280.255C-600.536 280.255 -601.943 281.663 -601.943 283.399Z" fill="#DFD626"/>
<path d="M-601.943 321.118C-601.943 322.854 -600.536 324.262 -598.801 324.262C-597.065 324.262 -595.658 322.854 -595.658 321.118C-595.658 319.382 -597.065 317.975 -598.801 317.975C-600.536 317.975 -601.943 319.382 -601.943 321.118Z" fill="#DFD626"/>
<path d="M-575.232 368.268C-575.232 370.004 -573.825 371.411 -572.09 371.411C-570.354 371.411 -568.947 370.004 -568.947 368.268C-568.947 366.532 -570.354 365.125 -572.09 365.125C-573.825 365.125 -575.232 366.532 -575.232 368.268Z" fill="#DFD626"/>
<path d="M-552.449 400.487C-552.449 402.223 -551.042 403.63 -549.307 403.63C-547.571 403.63 -546.164 402.223 -546.164 400.487C-546.164 398.751 -547.571 397.344 -549.307 397.344C-551.042 397.344 -552.449 398.751 -552.449 400.487Z" fill="#DFD626"/>
<path d="M-552.449 442.136C-552.449 443.872 -551.042 445.279 -549.307 445.279C-547.571 445.279 -546.164 443.872 -546.164 442.136C-546.164 440.4 -547.571 438.993 -549.307 438.993C-551.042 438.993 -552.449 440.4 -552.449 442.136Z" fill="#DFD626"/>
<path d="M-601.943 427.991C-601.943 429.727 -600.536 431.134 -598.801 431.134C-597.065 431.134 -595.658 429.727 -595.658 427.991C-595.658 426.255 -597.065 424.848 -598.801 424.848C-600.536 424.848 -601.943 426.255 -601.943 427.991Z" fill="#DFD626"/>
<path d="M-620.798 395.772C-620.798 397.508 -619.391 398.915 -617.655 398.915C-615.92 398.915 -614.513 397.508 -614.513 395.772C-614.513 394.036 -615.92 392.629 -617.655 392.629C-619.391 392.629 -620.798 394.036 -620.798 395.772Z" fill="#DFD626"/>
<path d="M-639.653 377.698C-639.653 379.434 -638.246 380.841 -636.51 380.841C-634.775 380.841 -633.368 379.434 -633.368 377.698C-633.368 375.962 -634.775 374.555 -636.51 374.555C-638.246 374.555 -639.653 375.962 -639.653 377.698Z" fill="#DFD626"/>
<path d="M-639.653 411.489C-639.653 413.225 -638.246 414.632 -636.51 414.632C-634.775 414.632 -633.368 413.225 -633.368 411.489C-633.368 409.753 -634.775 408.345 -636.51 408.345C-638.246 408.345 -639.653 409.753 -639.653 411.489Z" fill="#DFD626"/>
<path d="M-664.007 461.782C-664.007 463.518 -662.6 464.925 -660.864 464.925C-659.129 464.925 -657.722 463.518 -657.722 461.782C-657.722 460.046 -659.129 458.638 -660.864 458.638C-662.6 458.638 -664.007 460.046 -664.007 461.782Z" fill="#DFD626"/>
<path d="M-664.007 306.188C-664.007 307.924 -662.6 309.331 -660.864 309.331C-659.129 309.331 -657.722 307.924 -657.722 306.188C-657.722 304.452 -659.129 303.044 -660.864 303.044C-662.6 303.044 -664.007 304.452 -664.007 306.188Z" fill="#DFD626"/>
<path d="M-664.007 272.397C-664.007 274.133 -662.6 275.54 -660.864 275.54C-659.129 275.54 -657.722 274.133 -657.722 272.397C-657.722 270.661 -659.129 269.254 -660.864 269.254C-662.6 269.254 -664.007 270.661 -664.007 272.397Z" fill="#DFD626"/>
<path d="M-639.653 251.965C-639.653 253.701 -638.246 255.109 -636.51 255.109C-634.775 255.109 -633.368 253.701 -633.368 251.965C-633.368 250.229 -634.775 248.822 -636.51 248.822C-638.246 248.822 -639.653 250.229 -639.653 251.965Z" fill="#DFD626"/>
<path d="M-620.798 275.54C-620.798 277.276 -619.391 278.684 -617.655 278.684C-615.92 278.684 -614.513 277.276 -614.513 275.54C-614.513 273.804 -615.92 272.397 -617.655 272.397C-619.391 272.397 -620.798 273.804 -620.798 275.54Z" fill="#DFD626"/>
<path d="M-575.232 188.313C-575.232 190.049 -573.825 191.457 -572.09 191.457C-570.354 191.457 -568.947 190.049 -568.947 188.313C-568.947 186.577 -570.354 185.17 -572.09 185.17C-573.825 185.17 -575.232 186.577 -575.232 188.313Z" fill="#DFD626"/>
<path d="M-575.232 160.023C-575.232 161.759 -573.825 163.167 -572.09 163.167C-570.354 163.167 -568.947 161.759 -568.947 160.023C-568.947 158.287 -570.354 156.88 -572.09 156.88C-573.825 156.88 -575.232 158.287 -575.232 160.023Z" fill="#DFD626"/>
<path d="M-601.943 102.658C-601.943 104.394 -600.536 105.801 -598.801 105.801C-597.065 105.801 -595.658 104.394 -595.658 102.658C-595.658 100.922 -597.065 99.5145 -598.801 99.5145C-600.536 99.5145 -601.943 100.922 -601.943 102.658Z" fill="#DFD626"/>
<path d="M-601.943 66.5097C-601.943 68.2457 -600.536 69.653 -598.801 69.653C-597.065 69.653 -595.658 68.2457 -595.658 66.5097C-595.658 64.7737 -597.065 63.3663 -598.801 63.3663C-600.536 63.3663 -601.943 64.7737 -601.943 66.5097Z" fill="#DFD626"/>
<path d="M-622.369 25.6465C-622.369 27.3825 -620.962 28.7899 -619.227 28.7899C-617.491 28.7899 -616.084 27.3825 -616.084 25.6465C-616.084 23.9105 -617.491 22.5032 -619.227 22.5032C-620.962 22.5032 -622.369 23.9105 -622.369 25.6465Z" fill="#DFD626"/>
<path d="M-639.653 53.9364C-639.653 55.6724 -638.246 57.0797 -636.51 57.0797C-634.775 57.0797 -633.368 55.6724 -633.368 53.9364C-633.368 52.2004 -634.775 50.7931 -636.51 50.7931C-638.246 50.7931 -639.653 52.2004 -639.653 53.9364Z" fill="#DFD626"/>
<path d="M-639.653 119.946C-639.653 121.682 -638.246 123.089 -636.51 123.089C-634.775 123.089 -633.368 121.682 -633.368 119.946C-633.368 118.21 -634.775 116.803 -636.51 116.803C-638.246 116.803 -639.653 118.21 -639.653 119.946Z" fill="#DFD626"/>
<path d="M-664.007 75.9396C-664.007 77.6756 -662.6 79.0829 -660.864 79.0829C-659.129 79.0829 -657.722 77.6756 -657.722 75.9396C-657.722 74.2036 -659.129 72.7963 -660.864 72.7963C-662.6 72.7963 -664.007 74.2036 -664.007 75.9396Z" fill="#DFD626"/>
<path d="M-664.007 94.0137C-664.007 95.7497 -662.6 97.157 -660.864 97.157C-659.129 97.157 -657.722 95.7497 -657.722 94.0137C-657.722 92.2777 -659.129 90.8704 -660.864 90.8704C-662.6 90.8704 -664.007 92.2777 -664.007 94.0137Z" fill="#DFD626"/>
<path d="M-688.361 99.5145C-688.361 101.251 -686.954 102.658 -685.218 102.658C-683.483 102.658 -682.076 101.251 -682.076 99.5145C-682.076 97.7785 -683.483 96.3712 -685.218 96.3712C-686.954 96.3712 -688.361 97.7785 -688.361 99.5145Z" fill="#DFD626"/>
<path d="M-691.503 146.664C-691.503 148.4 -690.096 149.808 -688.361 149.808C-686.625 149.808 -685.218 148.4 -685.218 146.664C-685.218 144.928 -686.625 143.521 -688.361 143.521C-690.096 143.521 -691.503 144.928 -691.503 146.664Z" fill="#DFD626"/>
<path d="M-719 178.097C-719 179.833 -717.593 181.241 -715.858 181.241C-714.122 181.241 -712.715 179.833 -712.715 178.097C-712.715 176.361 -714.122 174.954 -715.858 174.954C-717.593 174.954 -719 176.361 -719 178.097Z" fill="#DFD626"/>
<path d="M-719 215.031C-719 216.767 -717.593 218.175 -715.858 218.175C-714.122 218.175 -712.715 216.767 -712.715 215.031C-712.715 213.295 -714.122 211.888 -715.858 211.888C-717.593 211.888 -719 213.295 -719 215.031Z" fill="#DFD626"/>
<path d="M-719 244.107C-719 245.843 -717.593 247.25 -715.858 247.25C-714.122 247.25 -712.715 245.843 -712.715 244.107C-712.715 242.371 -714.122 240.964 -715.858 240.964C-717.593 240.964 -719 242.371 -719 244.107Z" fill="#DFD626"/>
<path d="M-719 337.621C-719 339.357 -717.593 340.764 -715.858 340.764C-714.122 340.764 -712.715 339.357 -712.715 337.621C-712.715 335.885 -714.122 334.477 -715.858 334.477C-717.593 334.477 -719 335.885 -719 337.621Z" fill="#DFD626"/>
<path d="M-719 416.99C-719 418.726 -717.593 420.133 -715.858 420.133C-714.122 420.133 -712.715 418.726 -712.715 416.99C-712.715 415.254 -714.122 413.846 -715.858 413.846C-717.593 413.846 -719 415.254 -719 416.99Z" fill="#DFD626"/>
<path d="M-719 480.642C-719 482.378 -717.593 483.785 -715.858 483.785C-714.122 483.785 -712.715 482.378 -712.715 480.642C-712.715 478.906 -714.122 477.498 -715.858 477.498C-717.593 477.498 -719 478.906 -719 480.642Z" fill="#DFD626"/>
<path d="M-695.431 480.642C-695.431 482.378 -694.025 483.785 -692.289 483.785C-690.553 483.785 -689.146 482.378 -689.146 480.642C-689.146 478.906 -690.553 477.498 -692.289 477.498C-694.025 477.498 -695.431 478.906 -695.431 480.642Z" fill="#DFD626"/>
<path d="M-664.007 480.642C-664.007 482.378 -662.6 483.785 -660.864 483.785C-659.129 483.785 -657.722 482.378 -657.722 480.642C-657.722 478.906 -659.129 477.498 -660.864 477.498C-662.6 477.498 -664.007 478.906 -664.007 480.642Z" fill="#DFD626"/>
<path d="M-639.653 480.642C-639.653 482.378 -638.246 483.785 -636.51 483.785C-634.775 483.785 -633.368 482.378 -633.368 480.642C-633.368 478.906 -634.775 477.498 -636.51 477.498C-638.246 477.498 -639.653 478.906 -639.653 480.642Z" fill="#DFD626"/>
<path d="M-602.729 480.642C-602.729 482.378 -601.322 483.785 -599.586 483.785C-597.851 483.785 -596.444 482.378 -596.444 480.642C-596.444 478.906 -597.851 477.498 -599.586 477.498C-601.322 477.498 -602.729 478.906 -602.729 480.642Z" fill="#DFD626"/>
<path d="M-561.877 480.642C-561.877 482.378 -560.47 483.785 -558.734 483.785C-556.998 483.785 -555.592 482.378 -555.592 480.642C-555.592 478.906 -556.998 477.498 -558.734 477.498C-560.47 477.498 -561.877 478.906 -561.877 480.642Z" fill="#DFD626"/>
<path d="M-530.452 468.068C-530.452 469.804 -529.045 471.212 -527.309 471.212C-525.574 471.212 -524.167 469.804 -524.167 468.068C-524.167 466.332 -525.574 464.925 -527.309 464.925C-529.045 464.925 -530.452 466.332 -530.452 468.068Z" fill="#DFD626"/>
<path d="M-503.741 480.642C-503.741 482.378 -502.334 483.785 -500.598 483.785C-498.863 483.785 -497.456 482.378 -497.456 480.642C-497.456 478.906 -498.863 477.498 -500.598 477.498C-502.334 477.498 -503.741 478.906 -503.741 480.642Z" fill="#DFD626"/>
<path d="M-482.529 480.642C-482.529 482.378 -481.122 483.785 -479.387 483.785C-477.651 483.785 -476.244 482.378 -476.244 480.642C-476.244 478.906 -477.651 477.498 -479.387 477.498C-481.122 477.498 -482.529 478.906 -482.529 480.642Z" fill="#DFD626"/>
<path d="M-462.889 480.642C-462.889 482.378 -461.482 483.785 -459.746 483.785C-458.011 483.785 -456.604 482.378 -456.604 480.642C-456.604 478.906 -458.011 477.498 -459.746 477.498C-461.482 477.498 -462.889 478.906 -462.889 480.642Z" fill="#DFD626"/>
<path d="M-429.107 480.642C-429.107 482.378 -427.7 483.785 -425.965 483.785C-424.229 483.785 -422.822 482.378 -422.822 480.642C-422.822 478.906 -424.229 477.498 -425.965 477.498C-427.7 477.498 -429.107 478.906 -429.107 480.642Z" fill="#DFD626"/>
<path d="M-503.741 376.126C-503.741 377.862 -502.334 379.27 -500.598 379.27C-498.863 379.27 -497.456 377.862 -497.456 376.126C-497.456 374.39 -498.863 372.983 -500.598 372.983C-502.334 372.983 -503.741 374.39 -503.741 376.126Z" fill="#DFD626"/>
<path d="M-382.756 420.919C-382.756 422.655 -381.349 424.062 -379.613 424.062C-377.878 424.062 -376.471 422.655 -376.471 420.919C-376.471 419.183 -377.878 417.775 -379.613 417.775C-381.349 417.775 -382.756 419.183 -382.756 420.919Z" fill="#DFD626"/>
<path d="M-241.345 456.281C-241.345 458.017 -239.938 459.424 -238.202 459.424C-236.467 459.424 -235.06 458.017 -235.06 456.281C-235.06 454.545 -236.467 453.138 -238.202 453.138C-239.938 453.138 -241.345 454.545 -241.345 456.281Z" fill="#DFD626"/>
<path d="M-262.556 481.428C-262.556 483.164 -261.149 484.571 -259.414 484.571C-257.678 484.571 -256.271 483.164 -256.271 481.428C-256.271 479.692 -257.678 478.284 -259.414 478.284C-261.149 478.284 -262.556 479.692 -262.556 481.428Z" fill="#DFD626"/>
<path d="M-279.84 475.141C-279.84 476.877 -278.433 478.284 -276.697 478.284C-274.962 478.284 -273.555 476.877 -273.555 475.141C-273.555 473.405 -274.962 471.998 -276.697 471.998C-278.433 471.998 -279.84 473.405 -279.84 475.141Z" fill="#DFD626"/>
<path d="M-310.479 480.642C-310.479 482.378 -309.072 483.785 -307.336 483.785C-305.601 483.785 -304.194 482.378 -304.194 480.642C-304.194 478.906 -305.601 477.498 -307.336 477.498C-309.072 477.498 -310.479 478.906 -310.479 480.642Z" fill="#DFD626"/>
<path d="M-337.19 480.642C-337.19 482.378 -335.783 483.785 -334.047 483.785C-332.312 483.785 -330.905 482.378 -330.905 480.642C-330.905 478.906 -332.312 477.498 -334.047 477.498C-335.783 477.498 -337.19 478.906 -337.19 480.642Z" fill="#DFD626"/>
<path d="M-359.973 480.642C-359.973 482.378 -358.566 483.785 -356.83 483.785C-355.095 483.785 -353.688 482.378 -353.688 480.642C-353.688 478.906 -355.095 477.498 -356.83 477.498C-358.566 477.498 -359.973 478.906 -359.973 480.642Z" fill="#DFD626"/>
<path d="M-359.187 433.492C-359.187 435.228 -357.78 436.635 -356.045 436.635C-354.309 436.635 -352.902 435.228 -352.902 433.492C-352.902 431.756 -354.309 430.349 -356.045 430.349C-357.78 430.349 -359.187 431.756 -359.187 433.492Z" fill="#DFD626"/>
<path d="M-359.973 460.21C-359.973 461.946 -358.566 463.353 -356.83 463.353C-355.095 463.353 -353.688 461.946 -353.688 460.21C-353.688 458.474 -355.095 457.067 -356.83 457.067C-358.566 457.067 -359.973 458.474 -359.973 460.21Z" fill="#DFD626"/>
<path d="M-147.856 446.851C-147.856 448.587 -146.449 449.994 -144.714 449.994C-142.978 449.994 -141.571 448.587 -141.571 446.851C-141.571 445.115 -142.978 443.708 -144.714 443.708C-146.449 443.708 -147.856 445.115 -147.856 446.851Z" fill="#DFD626"/>
<path d="M-94.4342 481.428C-94.4342 483.164 -93.0272 484.571 -91.2917 484.571C-89.5562 484.571 -88.1492 483.164 -88.1492 481.428C-88.1492 479.692 -89.5562 478.284 -91.2917 478.284C-93.0272 478.284 -94.4342 479.692 -94.4342 481.428Z" fill="#DFD626"/>
<path d="M-122.716 473.569C-122.716 475.305 -121.309 476.713 -119.574 476.713C-117.838 476.713 -116.431 475.305 -116.431 473.569C-116.431 471.833 -117.838 470.426 -119.574 470.426C-121.309 470.426 -122.716 471.833 -122.716 473.569Z" fill="#DFD626"/>
<path d="M-47.2971 160.023C-47.2971 161.759 -45.8902 163.167 -44.1547 163.167C-42.4191 163.167 -41.0122 161.759 -41.0122 160.023C-41.0122 158.287 -42.4191 156.88 -44.1547 156.88C-45.8902 156.88 -47.2971 158.287 -47.2971 160.023Z" fill="#DFD626"/>
<path d="M-68.5088 185.17C-68.5088 186.906 -67.1019 188.313 -65.3663 188.313C-63.6308 188.313 -62.2239 186.906 -62.2239 185.17C-62.2239 183.434 -63.6308 182.027 -65.3663 182.027C-67.1019 182.027 -68.5088 183.434 -68.5088 185.17Z" fill="#DFD626"/>
<path d="M-47.2971 226.033C-47.2971 227.769 -45.8902 229.176 -44.1547 229.176C-42.4191 229.176 -41.0122 227.769 -41.0122 226.033C-41.0122 224.297 -42.4191 222.89 -44.1547 222.89C-45.8902 222.89 -47.2971 224.297 -47.2971 226.033Z" fill="#DFD626"/>
<path d="M-68.5088 320.333C-68.5088 322.069 -67.1019 323.476 -65.3663 323.476C-63.6308 323.476 -62.2239 322.069 -62.2239 320.333C-62.2239 318.597 -63.6308 317.189 -65.3663 317.189C-67.1019 317.189 -68.5088 318.597 -68.5088 320.333Z" fill="#DFD626"/>
<path d="M-96.0054 242.535C-96.0054 244.271 -94.5985 245.679 -92.863 245.679C-91.1274 245.679 -89.7205 244.271 -89.7205 242.535C-89.7205 240.799 -91.1274 239.392 -92.863 239.392C-94.5985 239.392 -96.0054 240.799 -96.0054 242.535Z" fill="#DFD626"/>
<path d="M-96.0054 270.825C-96.0054 272.561 -94.5985 273.969 -92.863 273.969C-91.1274 273.969 -89.7205 272.561 -89.7205 270.825C-89.7205 269.089 -91.1274 267.682 -92.863 267.682C-94.5985 267.682 -96.0054 269.089 -96.0054 270.825Z" fill="#DFD626"/>
<path d="M24.194 266.11C24.194 267.846 25.601 269.254 27.3365 269.254C29.0721 269.254 30.479 267.846 30.479 266.11C30.479 264.374 29.0721 262.967 27.3365 262.967C25.601 262.967 24.194 264.374 24.194 266.11Z" fill="#DFD626"/>
<path d="M24.194 326.619C24.194 328.355 25.601 329.762 27.3365 329.762C29.0721 329.762 30.479 328.355 30.479 326.619C30.479 324.883 29.0721 323.476 27.3365 323.476C25.601 323.476 24.194 324.883 24.194 326.619Z" fill="#DFD626"/>
<path d="M47.7626 349.408C47.7626 351.144 49.1695 352.552 50.905 352.552C52.6406 352.552 54.0475 351.144 54.0475 349.408C54.0475 347.672 52.6406 346.265 50.905 346.265C49.1695 346.265 47.7626 347.672 47.7626 349.408Z" fill="#DFD626"/>
<path d="M47.7626 402.845C47.7626 404.581 49.1695 405.988 50.905 405.988C52.6406 405.988 54.0475 404.581 54.0475 402.845C54.0475 401.109 52.6406 399.701 50.905 399.701C49.1695 399.701 47.7626 401.109 47.7626 402.845Z" fill="#DFD626"/>
<path d="M47.7626 475.141C47.7626 476.877 49.1695 478.284 50.905 478.284C52.6406 478.284 54.0475 476.877 54.0475 475.141C54.0475 473.405 52.6406 471.998 50.905 471.998C49.1695 471.998 47.7626 473.405 47.7626 475.141Z" fill="#DFD626"/>
<path d="M74.4735 376.126C74.4735 377.862 75.8805 379.27 77.616 379.27C79.3516 379.27 80.7585 377.862 80.7585 376.126C80.7585 374.39 79.3516 372.983 77.616 372.983C75.8805 372.983 74.4735 374.39 74.4735 376.126Z" fill="#DFD626"/>
<path d="M74.4735 399.701C74.4735 401.437 75.8805 402.845 77.616 402.845C79.3516 402.845 80.7585 401.437 80.7585 399.701C80.7585 397.965 79.3516 396.558 77.616 396.558C75.8805 396.558 74.4735 397.965 74.4735 399.701Z" fill="#DFD626"/>
<path d="M108.255 367.482C108.255 369.218 109.662 370.626 111.398 370.626C113.133 370.626 114.54 369.218 114.54 367.482C114.54 365.746 113.133 364.339 111.398 364.339C109.662 364.339 108.255 365.746 108.255 367.482Z" fill="#DFD626"/>
<path d="M108.255 108.944C108.255 110.68 109.662 112.088 111.398 112.088C113.133 112.088 114.54 110.68 114.54 108.944C114.54 107.208 113.133 105.801 111.398 105.801C109.662 105.801 108.255 107.208 108.255 108.944Z" fill="#DFD626"/>
<path d="M134.18 89.2987C134.18 91.0347 135.587 92.442 137.323 92.442C139.058 92.442 140.465 91.0347 140.465 89.2987C140.465 87.5627 139.058 86.1554 137.323 86.1554C135.587 86.1554 134.18 87.5627 134.18 89.2987Z" fill="#DFD626"/>
<path d="M336.084 154.523C336.084 156.259 337.491 157.666 339.227 157.666C340.962 157.666 342.369 156.259 342.369 154.523C342.369 152.787 340.962 151.379 339.227 151.379C337.491 151.379 336.084 152.787 336.084 154.523Z" fill="#DFD626"/>
<path d="M388.72 212.674C388.72 214.41 390.127 215.817 391.863 215.817C393.598 215.817 395.005 214.41 395.005 212.674C395.005 210.938 393.598 209.531 391.863 209.531C390.127 209.531 388.72 210.938 388.72 212.674Z" fill="#DFD626"/>
<path d="M409.932 300.687C409.932 302.423 411.339 303.83 413.075 303.83C414.81 303.83 416.217 302.423 416.217 300.687C416.217 298.951 414.81 297.543 413.075 297.543C411.339 297.543 409.932 298.951 409.932 300.687Z" fill="#DFD626"/>
<path d="M409.932 328.977C409.932 330.713 411.339 332.12 413.075 332.12C414.81 332.12 416.217 330.713 416.217 328.977C416.217 327.241 414.81 325.833 413.075 325.833C411.339 325.833 409.932 327.241 409.932 328.977Z" fill="#DFD626"/>
<path d="M409.932 396.558C409.932 398.294 411.339 399.701 413.075 399.701C414.81 399.701 416.217 398.294 416.217 396.558C416.217 394.822 414.81 393.415 413.075 393.415C411.339 393.415 409.932 394.822 409.932 396.558Z" fill="#DFD626"/>
<path d="M409.932 429.563C409.932 431.299 411.339 432.706 413.075 432.706C414.81 432.706 416.217 431.299 416.217 429.563C416.217 427.827 414.81 426.419 413.075 426.419C411.339 426.419 409.932 427.827 409.932 429.563Z" fill="#DFD626"/>
<path d="M409.932 233.105C409.932 234.841 411.339 236.249 413.075 236.249C414.81 236.249 416.217 234.841 416.217 233.105C416.217 231.369 414.81 229.962 413.075 229.962C411.339 229.962 409.932 231.369 409.932 233.105Z" fill="#DFD626"/>
<path d="M432.715 217.389C432.715 219.125 434.122 220.532 435.858 220.532C437.593 220.532 439 219.125 439 217.389C439 215.653 437.593 214.246 435.858 214.246C434.122 214.246 432.715 215.653 432.715 217.389Z" fill="#DFD626"/>
<path d="M432.715 333.692C432.715 335.428 434.122 336.835 435.858 336.835C437.593 336.835 439 335.428 439 333.692C439 331.956 437.593 330.548 435.858 330.548C434.122 330.548 432.715 331.956 432.715 333.692Z" fill="#DFD626"/>
<path d="M432.715 475.141C432.715 476.877 434.122 478.284 435.858 478.284C437.593 478.284 439 476.877 439 475.141C439 473.405 437.593 471.998 435.858 471.998C434.122 471.998 432.715 473.405 432.715 475.141Z" fill="#DFD626"/>
<path d="M409.932 475.141C409.932 476.877 411.339 478.284 413.075 478.284C414.81 478.284 416.217 476.877 416.217 475.141C416.217 473.405 414.81 471.998 413.075 471.998C411.339 471.998 409.932 473.405 409.932 475.141Z" fill="#DFD626"/>
<path d="M364.366 475.141C364.366 476.877 365.773 478.284 367.509 478.284C369.244 478.284 370.651 476.877 370.651 475.141C370.651 473.405 369.244 471.998 367.509 471.998C365.773 471.998 364.366 473.405 364.366 475.141Z" fill="#DFD626"/>
<path d="M364.366 416.99C364.366 418.726 365.773 420.133 367.509 420.133C369.244 420.133 370.651 418.726 370.651 416.99C370.651 415.254 369.244 413.846 367.509 413.846C365.773 413.846 364.366 415.254 364.366 416.99Z" fill="#DFD626"/>
<path d="M364.366 396.558C364.366 398.294 365.773 399.701 367.509 399.701C369.244 399.701 370.651 398.294 370.651 396.558C370.651 394.822 369.244 393.415 367.509 393.415C365.773 393.415 364.366 394.822 364.366 396.558Z" fill="#DFD626"/>
<path d="M388.72 367.482C388.72 369.218 390.127 370.626 391.863 370.626C393.598 370.626 395.005 369.218 395.005 367.482C395.005 365.746 393.598 364.339 391.863 364.339C390.127 364.339 388.72 365.746 388.72 367.482Z" fill="#DFD626"/>
<path d="M388.72 288.114C388.72 289.85 390.127 291.257 391.863 291.257C393.598 291.257 395.005 289.85 395.005 288.114C395.005 286.378 393.598 284.97 391.863 284.97C390.127 284.97 388.72 286.378 388.72 288.114Z" fill="#DFD626"/>
</svg>
